<?xml version="1.0" encoding="UTF-8" standalone="no"?>
<svg
   xmlns:dc="http://purl.org/dc/elements/1.1/"
   xmlns:cc="http://creativecommons.org/ns#"
   xmlns:rdf="http://www.w3.org/1999/02/22-rdf-syntax-ns#"
   xmlns:svg="http://www.w3.org/2000/svg"
   xmlns="http://www.w3.org/2000/svg"
   viewBox="0 0 1866.6667 1306.6667"
   height="1306.6667"
   width="1866.6667"
   xml:space="preserve"
   id="svg2"
   version="1.1"><metadata
     id="metadata8"><rdf:RDF><cc:Work
         rdf:about=""><dc:format>image/svg+xml</dc:format><dc:type
           rdf:resource="http://purl.org/dc/dcmitype/StillImage" /></cc:Work></rdf:RDF></metadata><defs
     id="defs6" /><g
     transform="matrix(1.3333333,0,0,-1.3333333,0,1306.6667)"
     id="g10"><g
       transform="scale(0.1)"
       id="g12"><path
         id="path14"
         style="fill:#bde8d8;fill-opacity:1;fill-rule:nonzero;stroke:none"
         d="M 0,0 H 14000 V 9796.44 H 0 Z" /><path
         id="path16"
         style="fill:#96dbcb;fill-opacity:1;fill-rule:nonzero;stroke:none"
         d="m 8393,2147.01 c 60.48,106.58 80.89,218.69 53.73,317.56 -33.29,121.21 -132.62,206.74 -272.52,234.65 -33.11,6.6 -67.16,9.95 -101.22,9.95 -31.78,0 -63.73,-2.83 -95.84,-8.48 56.02,183.27 58.26,383.84 -1.47,577.04 -69.77,225.73 -218.98,418.4 -416.68,542.16 40.12,235.71 146.37,440.02 234.8,577.21 4.43,-0.23 8.88,-0.35 13.33,-0.35 21.1,0 42.22,2.63 62.79,7.79 137.58,34.62 221.37,174.72 186.77,312.33 -28.83,114.55 -131.41,194.56 -249.45,194.56 -21.15,0 -42.3,-2.63 -62.86,-7.8 -66.65,-16.76 -122.79,-58.48 -158.07,-117.48 -27.48,-45.93 -39.74,-98.07 -35.89,-150.41 -174.43,-203.82 -281.74,-475.7 -343.44,-682.09 -52.49,8.87 -105.61,13.34 -159.01,13.34 -63.3,0 -126.37,-6.32 -188.46,-18.87 -62.06,213 -161.28,457.61 -317.19,647.11 4.92,52.17 -6.24,104.53 -32.73,151.01 -34.03,59.73 -89.29,102.62 -155.56,120.77 -22.22,6.09 -45.12,9.18 -68.07,9.18 -115.54,0 -217.56,-77.86 -248.1,-189.33 -37.5,-136.85 43.32,-278.68 180.15,-316.18 22.2,-6.09 45.08,-9.17 68.01,-9.17 2.64,0 5.28,0.05 7.93,0.12 82.32,-133.85 180.65,-331.64 218.93,-558.68 -350.01,-235.77 -509.41,-679.66 -380.95,-1095.19 16.4,-53.08 37.14,-104.3 61.87,-153.26 -52.62,14.98 -104.93,22.48 -156.84,22.48 -34.06,0 -68.12,-3.35 -101.22,-9.96 -139.9,-27.9 -239.22,-113.41 -272.52,-234.62 -27.16,-98.89 -6.75,-211 53.73,-317.57 -63.68,-44.11 -105.05,-97.31 -131.55,-143.86 -86.48,-151.91 -44.34,-269.28 -11.52,-325.72 79.26,-136.34 267.32,-214.53 515.95,-214.53 91.96,0 185.75,11.29 275.27,32.64 29.37,-104.82 78.44,-201.47 146.76,-288.78 l 0.36,-0.46 c 17.7,-22.58 36.98,-44.85 57.33,-66.2 l 1.73,-1.81 c 79.15,-82.59 178.42,-155.559 295.03,-216.899 21.93,-11.531 44.32,-21.719 67.03,-30.512 l 85.11,-182.219 c 24.7,-52.91 77.78,-86.531 135.88,-86.531 1.65,0 3.3,0.031 4.95,0.071 60.02,1.98 113.07,39.562 134.86,95.511 l 67.77,174.098 c 141.55,54.781 270.02,161.98 367.74,308.401 79.69,119.42 133.97,258.12 158.76,402.43 44.09,-4.98 88.3,-7.53 131.72,-7.53 h 0.01 c 248.61,0 436.69,78.19 515.93,214.49 32.83,56.45 74.97,173.83 -11.52,325.75 -26.5,46.55 -67.88,99.73 -131.55,143.84" /><path
         id="path18"
         style="fill:#96dbcb;fill-opacity:1;fill-rule:nonzero;stroke:none"
         d="m 1900.04,5636.85 c -29.25,-122.01 -8.61,-219.29 29.5,-293.66 l -33.11,-149 c -13.08,-58.82 10.32,-119.75 59.4,-154.71 25.98,-18.5 56.47,-27.83 87.04,-27.83 27.19,0 54.44,7.39 78.6,22.26 l 116.45,71.66 c 27.6,-5.93 55.63,-8.91 83.92,-8.91 343.84,0 604.18,424.31 671.46,771.63 228.15,31.95 438.61,138.29 602.84,306.72 195.08,200.08 302.51,464.96 302.51,745.87 0,261.18 -95.99,513.25 -266.4,706.88 122.67,247.28 310.54,435.73 452.83,554.11 27.24,-11.05 56.51,-17.69 86.8,-19.3 4.84,-0.26 9.67,-0.39 14.46,-0.39 142.8,0 260.62,111.75 268.25,254.4 7.9,147.98 -106.05,274.8 -254,282.7 -4.85,0.26 -9.68,0.39 -14.47,0.39 -129.08,0 -237.76,-91.31 -263.07,-214.19 -256.33,-159.83 -462.17,-419.65 -594.71,-619.49 -77.92,40.61 -160.45,71.11 -245.86,90.87 69.52,222.08 185.85,409.05 280.24,536.11 13.03,-1.96 26.23,-2.97 39.5,-2.97 16.47,0 33.07,1.55 49.34,4.57 145.66,27.17 242.08,167.78 214.93,313.43 -23.71,127.21 -134.76,219.53 -264.06,219.53 -16.49,0 -33.09,-1.54 -49.38,-4.57 -132.15,-24.65 -223.77,-142.66 -219.36,-273.13 -223.77,-228.36 -366.26,-552.8 -444.94,-778.06 -508.71,-77.27 -893.48,-520.06 -893.48,-1050.89 0,-35.93 1.79,-71.6 5.29,-106.86 -21.38,3.09 -41.96,4.39 -61.48,4.39 -5.35,0 -10.65,-0.1 -16.06,-0.29 -133.98,-4.87 -208.7,-65.57 -247.79,-115.64 -22.44,-28.74 -45.22,-69.49 -56.9,-124.47 -6.05,-0.89 -12.07,-1.88 -18.06,-3 -185.54,-34.35 -294.86,-171.75 -278.5,-350.03 25,-272.55 340.21,-563.57 778.27,-588.13" /><path
         id="path20"
         style="fill:#96dbcb;fill-opacity:1;fill-rule:nonzero;stroke:none"
         d="m 12943.9,4503.33 c -4.9,0.27 -9.7,0.39 -14.5,0.39 -129,0 -237.7,-91.3 -263,-214.19 -256.3,-159.81 -462.2,-419.58 -594.7,-619.4 -148,77.31 -311.8,117.62 -481.4,117.62 -5.5,0 -11.1,-0.05 -16.6,-0.13 27.8,153.79 74,289.74 115.4,391 29.5,3 58.2,10.9 85.5,23.58 65.2,30.21 114.6,83.98 139.3,151.4 24.7,67.41 21.6,140.4 -8.6,205.51 -43.9,94.54 -139.6,155.64 -243.8,155.64 -39.3,0 -77.3,-8.42 -113.1,-25.01 -121.9,-56.58 -181.5,-193.61 -144.9,-318.97 -121.2,-209.44 -183,-459.68 -214.5,-663.31 -173.5,-72.76 -327.6,-193.14 -440.8,-345.76 -137.1,-184.93 -209.6,-405.13 -209.6,-636.78 0,-33.68 1.5,-67.12 4.6,-100.27 -17.1,5.65 -34.5,10.36 -52.2,14.14 -29.6,6.31 -58.8,9.5 -86.8,9.5 -109.3,0 -201.8,-47.57 -260.6,-133.96 -52.5,-77.13 -72.1,-179.9 -58.3,-291.13 -8.5,-4.2 -17,-8.72 -25.3,-13.52 -134.54,-77.59 -194.31,-206.19 -159.88,-344.01 52.72,-211.12 334.98,-414.23 638.88,-480.62 -2.1,-30.32 -1.8,-59.96 0.9,-88.29 12.6,-132.45 77.6,-242.75 187.9,-318.971 9.1,-6.348 18.3,-12.59 27.5,-18.707 l -0.5,-119.09 c -0.2,-60.262 35.6,-114.82 91,-138.543 19,-8.14 39.1,-12.097 59,-12.097 38,0 75.5,14.468 104,41.898 l 67.1,64.512 c 79.6,-26.352 155.9,-39.653 227.7,-39.653 133.3,0 250.7,44.133 348.7,131.18 l 1.1,1.02 c 37.6,33.523 72.1,73.55 102.7,118.961 l 0.1,0.16 c 6.9,10.34 13.9,21.2 20.5,32.29 l 0.3,0.44 c 6.4,10.6 12.7,21.79 18.9,33.28 l 0.5,0.87 c 5.5,10.27 11,21.08 16.4,32.12 l 1,1.96 c 5.5,11.55 10.9,23.22 15.8,34.64 50.7,116.73 85.2,256.75 102.5,416.15 l 0.2,1.15 c 1.1,10.1 2.1,20.15 3,29.68 l 0.2,2.29 c 0.9,9.85 1.7,19.66 2.5,30.11 l 0.1,1.2 c 0.7,9.98 1.4,19.91 2,29.74 l 0.1,1.75 c 1.4,22.9 2.4,45.77 3.1,68.51 181.8,65.7 344.6,182.09 466.7,335.45 149.6,187.86 232,424.33 232,665.86 0,261.2 -96,513.27 -266.5,706.89 122.7,247.28 310.6,435.74 452.9,554.11 27.2,-11.04 56.5,-17.69 86.8,-19.31 4.8,-0.26 9.7,-0.39 14.4,-0.39 v 0 c 142.8,0 260.7,111.75 268.3,254.42 7.9,147.96 -106,274.77 -254,282.69" /><path
         id="path22"
         style="fill:#96dbcb;fill-opacity:1;fill-rule:nonzero;stroke:none"
         d="m 6274.17,7116.23 c -8.31,-35.77 -14.83,-72.24 -19.47,-109.27 l -21.15,2.17 c 13.98,34.41 27.67,70.25 40.62,107.1 z m 2377.45,1534.13 c -4.84,0.27 -9.68,0.39 -14.47,0.39 -129.02,0 -237.68,-91.26 -263.05,-214.17 -256.31,-159.83 -462.17,-419.66 -594.72,-619.5 -77.92,40.61 -160.46,71.11 -245.86,90.87 69.52,222.12 185.84,409.04 280.24,536.11 13.02,-1.96 26.23,-2.96 39.5,-2.96 16.46,0 33.04,1.53 49.32,4.56 70.57,13.16 131.8,53 172.39,112.2 40.6,59.2 55.7,130.68 42.55,201.23 -23.7,127.2 -134.76,219.53 -264.06,219.53 -16.49,0 -33.09,-1.54 -49.39,-4.57 -132.16,-24.65 -223.78,-142.7 -219.35,-273.15 -223.77,-228.36 -366.25,-552.78 -444.93,-778.04 -376.56,-57.19 -685.22,-314.69 -820.17,-659.92 10.01,37.72 18.75,75.84 25.81,113.98 71.53,386.78 -71.72,571.52 -204.5,658.38 -67.67,44.26 -136.77,66.71 -205.39,66.71 -85.83,0 -164.41,-35.24 -228.58,-100.18 -11.36,6.27 -22.93,12.11 -34.68,17.54 -59,27.24 -117.76,41.06 -174.64,41.06 -160.25,0 -290.62,-109.6 -340.24,-286.01 -43.62,-155.12 -22.69,-347.61 57.42,-528.11 36.73,-82.75 96.13,-186.1 190.85,-289.51 -16.78,-5.48 -33.07,-11.26 -48.71,-17.3 -0.91,-0.35 -1.81,-0.7 -2.74,-1.07 -11.8,-4.6 -23.99,-9.67 -35.87,-14.9 l -7.09,-3.19 c -10.91,-4.93 -21.88,-10.16 -32.53,-15.54 l -6.17,-3.12 c -13.1,-6.77 -24.96,-13.28 -36.22,-19.9 l -0.67,-0.4 c -157.6,-92.93 -253.19,-230.57 -280.07,-401.48 l -202.71,-109.41 c -52.84,-28.52 -83.58,-85.82 -78.13,-145.61 5.45,-59.81 46.04,-110.6 103.17,-129.1 l 250.93,-81.25 c 92.84,-199.35 261.46,-366.24 471.94,-464.52 l 1.18,-0.55 c 5.84,-2.75 11.69,-5.47 17.53,-8.06 4.68,-2.08 9.4,-4.07 14.12,-6.06 l 3.32,-1.39 c 5.62,-2.38 11.24,-4.73 17.09,-7.07 5.97,-2.39 11.98,-4.69 18.09,-7 5.4,-2.04 10.82,-4.05 16.11,-5.94 6.44,-2.32 12.9,-4.58 19.76,-6.91 4.87,-1.62 9.75,-3.18 14.76,-4.78 6.98,-2.23 13.95,-4.44 21.23,-6.6 2.79,-0.82 11.38,-3.23 11.38,-3.23 29.35,-8.31 59.2,-15.35 88.09,-20.79 l 3.97,-0.78 c 9.77,-1.8 19.59,-3.42 29.76,-4.99 l 6.35,-0.98 c 9.77,-1.44 19.56,-2.73 29.56,-3.91 l 5.64,-0.64 c 10.42,-1.18 20.86,-2.18 32.21,-3.1 l 1.45,-0.11 c 25.65,-1.99 51.67,-3.01 77.32,-3.01 161.99,0 317.42,38.74 461.99,115.15 l 0.77,0.41 c 14.87,7.88 29.88,16.33 44.6,25.09 l 2.95,1.75 c 22.96,13.77 45.63,28.56 67.37,43.95 l 3.08,2.22 c 13.04,9.3 26.09,19.06 38.69,28.92 l 7.47,5.89 c 11.45,9.13 23.04,18.74 34.82,28.93 0,0 5.28,4.52 6.87,5.92 6.45,5.66 12.87,11.42 19.03,17.1 2.4,2.19 8.74,8.17 8.74,8.17 10.31,9.67 20.44,19.49 30.12,29.23 3.56,3.58 7.11,7.21 10.67,10.89 8.89,9.17 17.7,18.56 26.41,28.13 l 0.8,0.89 c 3.61,3.97 7.21,7.93 10.77,11.94 5.43,6.14 10.84,12.32 16.12,18.54 6.9,8.09 13.75,16.33 20.56,24.74 19.29,23.81 38.07,48.76 56.28,74.72 152.64,-83.83 322.87,-127.54 500.17,-127.54 579.9,0 1051.69,476.78 1051.69,1062.82 0,261.19 -95.98,513.24 -266.41,706.88 122.68,247.29 310.55,435.73 452.84,554.1 27.25,-11.04 56.52,-17.68 86.81,-19.3 4.83,-0.26 9.65,-0.39 14.42,-0.39 h 0.01 c 142.79,0 260.63,111.75 268.27,254.42 7.9,147.98 -106.06,274.78 -254.01,282.68" /><path
         id="path24"
         style="fill:#96dbcb;fill-opacity:1;fill-rule:nonzero;stroke:none"
         d="m 4690.51,1801.72 -179.2,96.72 c -28.62,171.07 -131.03,304.94 -300.13,390.62 266.05,236.44 376.79,554.39 324.03,787.52 -40.6,179.48 -175.3,290.96 -351.53,290.96 -34.14,0 -69.89,-4.23 -106.26,-12.58 -15.22,-3.48 -30.29,-7.6 -45.21,-12.34 -64.3,103.83 -162.67,162.18 -281.83,162.18 -49.2,0 -100.87,-10.43 -153.58,-31.02 -154.42,-60.29 -340.4,-218.95 -349.51,-632.43 -1.5,-68.01 1.8,-136.95 8.31,-204.52 -129.14,303.07 -404.9,528.04 -739.65,581.68 -72.29,205.11 -201.32,496.02 -402.54,703.44 1.46,123.16 -85.88,233.6 -211.04,256.93 -15.63,2.91 -31.59,4.39 -47.44,4.39 -124.3,0 -231.07,-88.76 -253.86,-211.03 -26.1,-140.02 66.58,-275.2 206.66,-301.33 15.62,-2.91 31.56,-4.38 47.39,-4.38 10.1,0 20.15,0.6 30.11,1.78 82.74,-112.31 182.74,-274.22 244.89,-465.75 -70.25,-17.37 -138.34,-42.66 -203.09,-75.42 -121.06,180.88 -305.97,411.83 -535.54,556.57 -26.42,115.35 -129.57,200.38 -251.72,200.38 -4.6,0 -9.2,-0.11 -13.89,-0.37 -142.235,-7.62 -251.775,-129.54 -244.169,-271.77 7.328,-137.14 120.599,-244.57 257.889,-244.57 4.6,0 9.22,0.11 13.9,0.37 26.39,1.41 51.96,6.78 76.02,15.68 126.58,-106.17 290.76,-272.21 400.03,-488.61 -153.98,-178.18 -240.56,-408.49 -240.56,-647.03 0,-542.02 436.41,-982.97 972.82,-982.97 34.43,0 69.04,1.88 103.55,5.62 81.02,-77.54 173.38,-142.42 275.46,-193.4 11.4,-5.7 23.42,-11.41 37.83,-17.97 l 9.72,-4.42 c 12.09,-5.38 24.26,-10.55 36.18,-15.39 3.5,-1.42 11.8,-4.7 11.8,-4.7 11.14,-4.39 22.32,-8.65 33.32,-12.61 4.35,-1.58 8.71,-3.1 13.09,-4.61 l 1.08,-0.37 c 9.09,-3.18 18.22,-6.23 27.41,-9.19 l 2.77,-0.89 c 4.33,-1.4 8.67,-2.79 13.11,-4.16 10.42,-3.199 20.89,-6.261 31.27,-9.16 6.76,-1.898 13.53,-3.73 20.62,-5.609 5.85,-1.52 11.71,-2.969 17.48,-4.398 11.85,-2.942 23.74,-5.731 35.86,-8.391 l 10.8,-2.313 c 16.05,-3.379 32.37,-6.519 47.98,-9.207 l 2.57,-0.453 c 79.15,-13.558 161.22,-20.418 243.94,-20.429 h 0.02 c 90.09,0 181.28,8.121 270.63,24.07 l 6.8,1.199 c 11.29,2.063 22.52,4.281 33.96,6.621 l 8.51,1.762 c 10.89,2.32 21.73,4.738 31.87,7.117 3.32,0.762 6.64,1.563 9.84,2.332 10.71,2.578 21.36,5.25 32.37,8.149 l 8.3,2.23 c 10.84,2.922 21.65,5.93 32.8,9.2 l 6.24,1.9 c 61.56,18.4 121.6,40.65 178.66,66.25 l 7.18,3.19 c 9.26,4.22 18.38,8.57 27.65,13.04 l 9.81,4.75 c 8.76,4.32 17.42,8.75 25.89,13.17 3.77,1.96 7.53,3.92 10.82,5.69 8.31,4.43 16.54,8.94 24.86,13.6 3.68,2.06 7.32,4.16 10.81,6.17 8.22,4.71 16.36,9.49 24.29,14.29 2.42,1.47 10.01,6.19 10.01,6.19 8.2,5.07 16.35,10.19 24.41,15.46 1.93,1.26 7.71,5.14 7.71,5.14 115.86,77.06 209.53,170.09 274.05,271.66 l 250.33,81.07 c 57.13,18.49 97.72,69.28 103.17,129.09 5.45,59.8 -25.29,117.09 -78.13,145.61" /><path
         id="path26"
         style="fill:#96dbcb;fill-opacity:1;fill-rule:nonzero;stroke:none"
         d="m 10393.9,5905.16 c 90.3,-24.83 183.3,-37.4 276.3,-37.4 5.6,0 11.2,0.04 16.7,0.12 15.6,-17.93 34.4,-32.26 54.9,-42.54 27.6,-13.8 56.7,-20.81 86.5,-20.81 21,0 40,3.42 56.8,8.79 16.1,-11.8 32.8,-19.28 48.2,-24.01 48,-62.81 95.9,-122.08 142.8,-176.84 l 0.5,-0.57 c 21.4,-24.96 43,-49.45 64.2,-72.79 l 1,-1.1 c 10.3,-11.39 20.6,-22.54 30.9,-33.54 l 1.9,-1.93 c 10.1,-10.84 20.2,-21.47 30.3,-31.86 l 0.7,-0.68 c 117.9,-121.8 234.5,-219.21 346.4,-289.56 l 0.4,-0.27 c 17.8,-11.19 35.8,-21.88 53.5,-31.77 l 1.1,-0.66 c 17.4,-9.67 34.9,-18.85 52,-27.27 l 1.8,-0.89 c 16.9,-8.23 34,-15.98 51.2,-23.24 l 2,-0.84 c 16.6,-6.9 33.2,-13.29 49.5,-18.99 l 2.9,-1.02 c 16.3,-5.6 32.6,-10.69 48.6,-15.12 l 3.1,-0.85 c 15.8,-4.31 31.8,-8.14 47.9,-11.44 l 1.9,-0.37 29.1,147.15 -28,-147.38 c 7.5,-1.48 14.9,-2.86 22.2,-4.09 l 1.1,-0.17 c 36.2,-5.99 72.5,-9.04 107.9,-9.04 139,0 269.7,46.67 382.6,135.8 l 203.8,-50.79 c 12,-3.01 24.2,-4.46 36.3,-4.46 46.2,0 90.8,21.46 119.5,59.43 36.3,47.87 40.5,112.75 10.7,164.9 l -109.8,192.6 c 65.4,178.1 38.2,348.87 -80.1,497.13 l -1.1,1.34 c -14.6,18.27 -30.9,36.44 -48.6,54.07 l -1.1,1.17 c -16.7,16.59 -34.8,33.01 -54,48.86 l -0.9,0.79 c -3.8,3.1 -7.6,6.19 -11.5,9.27 141.9,63.02 246.1,144.42 318.2,215.64 160.2,158.32 250.9,356.36 242.5,529.76 -9.9,203.73 -157,340.62 -366.1,340.62 -5,0 -9.9,-0.07 -15,-0.22 -12.9,-0.38 -25.8,-1.22 -38.7,-2.51 -51.5,130.65 -161,208.48 -306.8,208.48 -25.4,0 -52.1,-2.44 -79.2,-7.26 -164.5,-29.21 -377.2,-152.36 -456.5,-573.19 -25.8,-136.73 -32.7,-278.85 -32,-398.79 -8.8,2.13 -17.6,4.24 -26.5,6.33 -5.2,16.43 -12.9,32.2 -22.9,46.89 -4.6,6.87 -9.6,13.27 -14.8,19.25 16.2,39.7 30,80.43 41.4,121.96 140.7,511.86 -112.9,1040.79 -583,1250.12 -16.2,238.06 -67.6,588.65 -222.8,868.14 38.8,124.63 -18.2,262.73 -139.1,321.51 -36.5,17.71 -77.1,27.07 -117.5,27.07 -102.2,0 -197.1,-59.38 -241.7,-151.27 -64.8,-133.28 -9.1,-294.42 124.2,-359.19 26.7,-13 55.7,-21.49 85.2,-25.09 57.3,-147.55 120,-358.63 128.1,-591.21 -14.1,0.59 -28.2,0.87 -42.3,0.87 -73.8,0 -147,-7.8 -218.8,-23.28 -74.9,227.81 -204.5,532.86 -409.3,754.89 3.8,56.94 -10.7,113.38 -42.1,162.31 -38.72,60.42 -98.71,102.11 -168.83,117.41 -18.87,4.11 -38.18,6.2 -57.42,6.2 -125.32,0 -235.7,-88.94 -262.44,-211.47 -31.6,-144.76 60.48,-288.26 205.29,-319.86 18.84,-4.11 38.12,-6.19 57.32,-6.19 10.59,0 21.09,0.61 31.46,1.82 105.83,-151.86 237.02,-383.37 289.82,-654.33 -215.64,-141.53 -375.01,-359.15 -444.23,-611 -75.14,-273.39 -40.55,-559.46 97.4,-805.48 138.29,-246.64 363.83,-423.51 635.03,-498.06" /><path
         id="path28"
         style="fill:#ffffff;fill-opacity:1;fill-rule:nonzero;stroke:none"
         d="m 8453,2223.68 c 60.48,106.57 80.89,218.68 53.73,317.56 -33.29,121.21 -132.62,206.74 -272.52,234.65 -33.11,6.6 -67.16,9.95 -101.22,9.95 -31.78,0 -63.73,-2.83 -95.84,-8.49 56.02,183.27 58.26,383.85 -1.47,577.04 -69.77,225.74 -218.98,418.4 -416.68,542.16 40.12,235.72 146.37,440.03 234.8,577.22 4.43,-0.23 8.88,-0.35 13.33,-0.35 21.1,0 42.22,2.62 62.79,7.79 137.58,34.62 221.37,174.72 186.77,312.33 -28.83,114.55 -131.41,194.56 -249.45,194.56 -21.15,0 -42.3,-2.63 -62.86,-7.81 -66.65,-16.75 -122.79,-58.47 -158.07,-117.47 -27.48,-45.94 -39.74,-98.07 -35.89,-150.41 -174.43,-203.83 -281.74,-475.7 -343.44,-682.09 -52.49,8.87 -105.61,13.34 -159.01,13.34 -63.3,0 -126.37,-6.33 -188.46,-18.87 -62.06,212.99 -161.28,457.6 -317.19,647.1 4.92,52.18 -6.24,104.54 -32.73,151.02 -34.03,59.73 -89.29,102.62 -155.56,120.77 -22.22,6.09 -45.12,9.18 -68.07,9.18 -115.54,0 -217.56,-77.86 -248.1,-189.33 -37.5,-136.85 43.32,-278.69 180.15,-316.19 22.2,-6.08 45.08,-9.17 68.01,-9.17 2.64,0 5.28,0.05 7.93,0.13 82.32,-133.86 180.65,-331.64 218.93,-558.68 -350.01,-235.77 -509.41,-679.66 -380.95,-1095.2 16.4,-53.07 37.14,-104.29 61.87,-153.25 -52.62,14.97 -104.93,22.47 -156.84,22.47 -34.06,0 -68.12,-3.35 -101.22,-9.95 -139.9,-27.9 -239.22,-113.42 -272.52,-234.63 -27.16,-98.88 -6.75,-210.99 53.73,-317.57 -63.68,-44.11 -105.05,-97.3 -131.55,-143.85 -86.48,-151.91 -44.34,-269.28 -11.52,-325.73 79.26,-136.33 267.32,-214.53 515.95,-214.53 91.96,0 185.75,11.29 275.27,32.65 29.37,-104.82 78.44,-201.48 146.76,-288.78 l 0.36,-0.47 c 17.7,-22.58 36.98,-44.84 57.33,-66.19 l 1.73,-1.82 c 79.15,-82.58 178.42,-155.551 295.03,-216.891 21.93,-11.527 44.32,-21.731 67.03,-30.52 l 85.11,-182.218 c 24.7,-52.911 77.78,-86.532 135.88,-86.532 1.65,0 3.3,0.032 4.95,0.082 60.02,1.969 113.07,39.551 134.86,95.508 l 67.77,174.102 c 141.55,54.769 270.02,161.969 367.74,308.399 79.69,119.41 133.97,258.11 158.76,402.43 44.09,-4.98 88.3,-7.53 131.72,-7.53 h 0.01 c 248.61,0 436.69,78.18 515.93,214.49 32.83,56.45 74.97,173.83 -11.52,325.74 -26.5,46.56 -67.88,99.74 -131.55,143.85" /><path
         id="path30"
         style="fill:#ffffff;fill-opacity:1;fill-rule:nonzero;stroke:none"
         d="m 1960.04,5713.52 c -29.25,-122.02 -8.61,-219.29 29.5,-293.67 l -33.11,-148.99 c -13.08,-58.82 10.32,-119.76 59.4,-154.72 25.98,-18.49 56.47,-27.82 87.04,-27.82 27.19,0 54.44,7.38 78.6,22.26 l 116.45,71.66 c 27.6,-5.93 55.63,-8.91 83.92,-8.91 343.84,0 604.18,424.31 671.46,771.63 228.15,31.94 438.61,138.29 602.84,306.72 195.08,200.08 302.51,464.96 302.51,745.87 0,261.18 -95.99,513.25 -266.4,706.87 122.67,247.29 310.54,435.74 452.83,554.12 27.24,-11.05 56.51,-17.69 86.8,-19.3 4.84,-0.27 9.67,-0.39 14.46,-0.39 142.8,0 260.62,111.75 268.25,254.4 7.9,147.98 -106.05,274.8 -254,282.7 -4.85,0.26 -9.68,0.39 -14.47,0.39 -129.08,0 -237.76,-91.31 -263.07,-214.19 -256.33,-159.84 -462.17,-419.65 -594.71,-619.49 -77.92,40.61 -160.45,71.11 -245.86,90.87 69.52,222.08 185.85,409.05 280.24,536.11 13.03,-1.96 26.23,-2.97 39.5,-2.97 16.47,0 33.07,1.54 49.34,4.57 145.66,27.17 242.08,167.77 214.93,313.43 -23.71,127.21 -134.76,219.53 -264.06,219.53 -16.49,0 -33.09,-1.54 -49.38,-4.57 -132.15,-24.65 -223.77,-142.66 -219.36,-273.13 -223.77,-228.37 -366.26,-552.8 -444.94,-778.06 -508.71,-77.27 -893.48,-520.06 -893.48,-1050.89 0,-35.93 1.79,-71.6 5.29,-106.87 -21.38,3.1 -41.96,4.4 -61.48,4.4 -5.35,0 -10.65,-0.1 -16.06,-0.29 -133.98,-4.87 -208.7,-65.57 -247.79,-115.64 -22.44,-28.74 -45.22,-69.49 -56.9,-124.47 -6.05,-0.89 -12.07,-1.89 -18.06,-3 -185.54,-34.36 -294.86,-171.75 -278.5,-350.03 25,-272.55 340.21,-563.57 778.27,-588.13" /><path
         id="path32"
         style="fill:#ffffff;fill-opacity:1;fill-rule:nonzero;stroke:none"
         d="m 13003.9,4580 c -4.9,0.26 -9.7,0.39 -14.5,0.39 -129,0 -237.7,-91.3 -263,-214.19 -256.3,-159.81 -462.2,-419.58 -594.7,-619.4 -148,77.31 -311.8,117.61 -481.4,117.61 -5.5,0 -11.1,-0.04 -16.6,-0.12 27.8,153.79 74,289.73 115.4,390.99 29.5,3.01 58.2,10.91 85.5,23.59 65.2,30.21 114.6,83.98 139.3,151.39 24.7,67.42 21.6,140.4 -8.6,205.52 -43.9,94.54 -139.6,155.64 -243.8,155.64 -39.3,0 -77.3,-8.42 -113.1,-25.01 -121.9,-56.59 -181.5,-193.62 -144.9,-318.97 -121.2,-209.44 -183,-459.69 -214.5,-663.31 -173.5,-72.76 -327.6,-193.14 -440.8,-345.76 -137.1,-184.93 -209.6,-405.13 -209.6,-636.78 0,-33.68 1.5,-67.13 4.6,-100.27 -17.1,5.64 -34.5,10.36 -52.2,14.14 -29.6,6.31 -58.8,9.5 -86.8,9.5 -109.3,0 -201.8,-47.58 -260.6,-133.96 -52.5,-77.13 -72.1,-179.91 -58.3,-291.14 -8.5,-4.2 -17,-8.71 -25.3,-13.51 -134.54,-77.59 -194.31,-206.19 -159.88,-344.02 52.68,-211.11 334.98,-414.22 638.88,-480.61 -2.1,-30.32 -1.8,-59.96 0.9,-88.29 12.6,-132.45 77.6,-242.76 187.9,-318.98 9.1,-6.34 18.3,-12.58 27.5,-18.71 l -0.5,-119.092 c -0.2,-60.246 35.6,-114.808 91,-138.527 19,-8.152 39.1,-12.101 59,-12.101 38,0 75.5,14.472 104,41.902 l 67.1,64.5 c 79.6,-26.352 155.9,-39.652 227.7,-39.652 133.3,0 250.7,44.132 348.7,131.191 l 1.1,1.008 c 37.6,33.531 72.1,73.561 102.7,118.971 l 0.1,0.15 c 6.9,10.34 13.9,21.2 20.5,32.3 l 0.3,0.44 c 6.4,10.59 12.7,21.78 18.9,33.28 l 0.5,0.87 c 5.5,10.27 11,21.07 16.4,32.12 l 1,1.96 c 5.5,11.54 10.9,23.21 15.8,34.64 50.7,116.73 85.2,256.75 102.5,416.15 l 0.2,1.15 c 1.1,10.1 2.1,20.15 3,29.68 l 0.2,2.28 c 0.9,9.86 1.7,19.66 2.5,30.12 l 0.1,1.19 c 0.7,9.98 1.4,19.92 2,29.75 l 0.1,1.75 c 1.4,22.9 2.4,45.77 3.1,68.5 181.8,65.71 344.6,182.09 466.7,335.46 149.6,187.85 232,424.33 232,665.86 0,261.19 -96,513.26 -266.5,706.89 122.7,247.28 310.6,435.74 452.9,554.11 27.2,-11.05 56.5,-17.69 86.8,-19.31 4.8,-0.26 9.7,-0.39 14.4,-0.39 v 0 c 142.8,0 260.7,111.75 268.3,254.41 7.9,147.96 -106,274.78 -254,282.7" /><path
         id="path34"
         style="fill:#ffffff;fill-opacity:1;fill-rule:nonzero;stroke:none"
         d="m 6334.17,7192.9 c -8.31,-35.77 -14.83,-72.25 -19.47,-109.28 l -21.15,2.18 c 13.98,34.41 27.67,70.24 40.62,107.1 z m 2377.45,1534.13 c -4.84,0.26 -9.68,0.39 -14.47,0.39 -129.02,0 -237.68,-91.26 -263.05,-214.17 -256.31,-159.83 -462.17,-419.67 -594.72,-619.5 -77.92,40.61 -160.46,71.1 -245.86,90.87 69.52,222.12 185.84,409.04 280.24,536.11 13.02,-1.96 26.23,-2.97 39.5,-2.97 16.46,0 33.04,1.54 49.32,4.56 70.57,13.17 131.8,53.01 172.39,112.21 40.6,59.2 55.7,130.68 42.55,201.23 -23.7,127.2 -134.76,219.53 -264.06,219.53 -16.49,0 -33.09,-1.54 -49.39,-4.58 -132.16,-24.64 -223.78,-142.69 -219.35,-273.14 -223.77,-228.36 -366.25,-552.78 -444.93,-778.04 -376.56,-57.2 -685.22,-314.7 -820.17,-659.92 10.01,37.71 18.75,75.84 25.81,113.97 71.53,386.79 -71.72,571.53 -204.5,658.38 -67.67,44.27 -136.77,66.72 -205.39,66.72 -85.83,0 -164.41,-35.24 -228.58,-100.18 -11.36,6.27 -22.93,12.11 -34.68,17.54 -59,27.24 -117.76,41.06 -174.64,41.06 -160.25,0 -290.62,-109.6 -340.24,-286.02 -43.62,-155.11 -22.69,-347.6 57.42,-528.1 36.73,-82.76 96.13,-186.11 190.85,-289.51 -16.78,-5.48 -33.07,-11.26 -48.71,-17.3 -0.91,-0.35 -1.81,-0.7 -2.74,-1.07 -11.8,-4.6 -23.99,-9.67 -35.87,-14.9 l -7.09,-3.19 c -10.91,-4.93 -21.88,-10.16 -32.53,-15.55 l -6.17,-3.11 c -13.1,-6.77 -24.96,-13.28 -36.22,-19.9 l -0.67,-0.4 c -157.6,-92.93 -253.19,-230.57 -280.07,-401.48 l -202.71,-109.41 c -52.84,-28.53 -83.58,-85.82 -78.13,-145.62 5.45,-59.8 46.04,-110.59 103.17,-129.09 l 250.93,-81.25 c 92.84,-199.35 261.46,-366.24 471.94,-464.52 l 1.18,-0.56 c 5.84,-2.74 11.69,-5.47 17.53,-8.05 4.68,-2.08 9.4,-4.08 14.12,-6.06 l 3.32,-1.39 c 5.62,-2.38 11.24,-4.73 17.09,-7.08 5.97,-2.38 11.98,-4.68 18.09,-7 5.4,-2.03 10.82,-4.04 16.11,-5.93 6.44,-2.32 12.9,-4.58 19.76,-6.91 4.87,-1.62 9.75,-3.18 14.76,-4.78 6.98,-2.23 13.95,-4.45 21.23,-6.61 2.79,-0.82 11.38,-3.22 11.38,-3.22 29.35,-8.31 59.2,-15.35 88.09,-20.79 l 3.97,-0.78 c 9.77,-1.81 19.59,-3.42 29.76,-4.99 l 6.35,-0.99 c 9.77,-1.43 19.56,-2.72 29.56,-3.9 l 5.64,-0.64 c 10.42,-1.18 20.86,-2.19 32.21,-3.1 l 1.45,-0.11 c 25.65,-1.99 51.67,-3.01 77.32,-3.01 161.99,0 317.42,38.74 461.99,115.15 l 0.77,0.41 c 14.87,7.88 29.88,16.33 44.6,25.09 l 2.95,1.74 c 22.96,13.77 45.63,28.57 67.37,43.96 l 3.08,2.22 c 13.04,9.3 26.09,19.06 38.69,28.92 l 7.47,5.89 c 11.45,9.13 23.04,18.74 34.82,28.93 0,0 5.28,4.52 6.87,5.91 6.45,5.67 12.87,11.43 19.03,17.1 2.4,2.2 8.74,8.18 8.74,8.18 10.31,9.67 20.44,19.49 30.12,29.23 3.56,3.58 7.11,7.2 10.67,10.88 8.89,9.17 17.7,18.57 26.41,28.14 l 0.8,0.89 c 3.61,3.96 7.21,7.93 10.77,11.94 5.43,6.13 10.84,12.32 16.12,18.54 6.9,8.09 13.75,16.32 20.56,24.73 19.29,23.82 38.07,48.76 56.28,74.73 152.64,-83.83 322.87,-127.54 500.17,-127.54 579.9,0 1051.69,476.78 1051.69,1062.81 0,261.19 -95.98,513.24 -266.41,706.89 122.68,247.28 310.55,435.73 452.84,554.1 27.25,-11.05 56.52,-17.69 86.81,-19.3 4.83,-0.26 9.65,-0.39 14.42,-0.39 h 0.01 c 142.79,0 260.63,111.75 268.27,254.42 7.9,147.97 -106.06,274.78 -254.01,282.68" /><path
         id="path36"
         style="fill:#ffffff;fill-opacity:1;fill-rule:nonzero;stroke:none"
         d="m 4750.51,1878.39 -179.2,96.72 c -28.62,171.07 -131.03,304.94 -300.13,390.61 266.05,236.45 376.79,554.4 324.03,787.53 -40.6,179.47 -175.3,290.96 -351.53,290.96 -34.14,0 -69.89,-4.23 -106.26,-12.58 -15.22,-3.49 -30.29,-7.61 -45.21,-12.34 -64.3,103.83 -162.67,162.17 -281.83,162.17 -49.2,0 -100.87,-10.42 -153.58,-31.01 -154.42,-60.29 -340.4,-218.96 -349.51,-632.43 -1.5,-68.01 1.8,-136.96 8.31,-204.52 -129.14,303.07 -404.9,528.03 -739.65,581.68 -72.29,205.1 -201.32,496.02 -402.54,703.43 1.46,123.17 -85.88,233.61 -211.04,256.94 -15.63,2.91 -31.59,4.39 -47.44,4.39 -124.3,0 -231.07,-88.76 -253.86,-211.03 -26.1,-140.02 66.58,-275.2 206.66,-301.33 15.62,-2.91 31.56,-4.39 47.39,-4.39 10.1,0 20.15,0.61 30.11,1.79 82.74,-112.31 182.74,-274.22 244.89,-465.75 -70.25,-17.37 -138.34,-42.66 -203.09,-75.42 -121.06,180.88 -305.97,411.82 -535.54,556.57 -26.42,115.34 -129.57,200.38 -251.72,200.38 -4.6,0 -9.2,-0.12 -13.89,-0.37 -142.24,-7.63 -251.775,-129.54 -244.169,-271.78 7.328,-137.14 120.599,-244.57 257.889,-244.57 4.6,0 9.22,0.12 13.9,0.37 26.39,1.42 51.96,6.79 76.02,15.69 126.58,-106.17 290.76,-272.21 400.03,-488.62 -153.98,-178.17 -240.56,-408.48 -240.56,-647.03 0,-542.01 436.41,-982.97 972.82,-982.97 34.43,0 69.04,1.89 103.55,5.63 81.02,-77.55 173.38,-142.42 275.46,-193.41 11.4,-5.69 23.42,-11.41 37.83,-17.97 l 9.72,-4.41 c 12.09,-5.38 24.26,-10.56 36.18,-15.39 3.5,-1.43 11.8,-4.71 11.8,-4.71 11.14,-4.38 22.32,-8.64 33.32,-12.61 4.35,-1.58 8.71,-3.09 13.09,-4.61 l 1.08,-0.37 c 9.09,-3.17 18.22,-6.23 27.41,-9.19 l 2.77,-0.89 c 4.33,-1.39 8.67,-2.79 13.11,-4.16 10.42,-3.2 20.89,-6.26 31.27,-9.16 6.76,-1.9 13.53,-3.73 20.62,-5.6 5.85,-1.52 11.71,-2.98 17.48,-4.41 11.85,-2.93 23.74,-5.73 35.86,-8.38 l 10.8,-2.32 c 16.05,-3.38 32.37,-6.51 47.98,-9.21 l 2.57,-0.45 c 79.15,-13.55 161.22,-20.42 243.94,-20.43 h 0.02 c 90.09,0 181.28,8.13 270.63,24.08 l 6.8,1.2 c 11.29,2.06 22.52,4.27 33.96,6.62 l 8.51,1.76 c 10.89,2.31 21.73,4.73 31.87,7.12 3.32,0.76 6.64,1.56 9.84,2.33 10.71,2.58 21.36,5.24 32.37,8.14 l 8.3,2.24 c 10.84,2.92 21.65,5.93 32.8,9.2 l 6.24,1.89 c 61.56,18.4 121.6,40.66 178.66,66.25 l 7.18,3.2 c 9.26,4.22 18.38,8.56 27.65,13.03 l 9.81,4.76 c 8.76,4.32 17.42,8.74 25.89,13.16 3.77,1.97 7.53,3.93 10.82,5.7 8.31,4.42 16.54,8.93 24.86,13.59 3.68,2.06 7.32,4.16 10.81,6.17 8.22,4.72 16.36,9.5 24.29,14.3 2.42,1.46 10.01,6.18 10.01,6.18 8.2,5.08 16.35,10.2 24.41,15.46 1.93,1.26 7.71,5.15 7.71,5.15 115.86,77.06 209.53,170.08 274.05,271.66 l 250.33,81.06 c 57.13,18.5 97.72,69.29 103.17,129.09 5.45,59.81 -25.29,117.09 -78.13,145.62" /><path
         id="path38"
         style="fill:#ffffff;fill-opacity:1;fill-rule:nonzero;stroke:none"
         d="m 10453.9,5981.83 c 90.3,-24.83 183.3,-37.41 276.3,-37.41 5.6,0 11.2,0.04 16.7,0.13 15.6,-17.93 34.4,-32.26 54.9,-42.54 27.6,-13.81 56.7,-20.81 86.5,-20.81 21,0 40,3.42 56.8,8.79 16.1,-11.81 32.8,-19.29 48.2,-24.01 48,-62.82 95.9,-122.08 142.8,-176.84 l 0.5,-0.58 c 21.4,-24.96 43,-49.44 64.2,-72.78 l 1,-1.1 c 10.3,-11.39 20.6,-22.54 30.9,-33.55 l 1.9,-1.92 c 10.1,-10.84 20.2,-21.48 30.3,-31.87 l 0.7,-0.67 c 117.9,-121.81 234.5,-219.21 346.4,-289.56 l 0.4,-0.27 c 17.8,-11.2 35.8,-21.88 53.5,-31.77 l 1.1,-0.67 c 17.4,-9.66 34.9,-18.84 52,-27.26 l 1.8,-0.89 c 16.9,-8.23 34,-15.99 51.2,-23.24 l 2,-0.84 c 16.6,-6.91 33.2,-13.29 49.5,-19 l 2.9,-1.01 c 16.3,-5.61 32.6,-10.7 48.6,-15.12 l 3.1,-0.85 c 15.8,-4.32 31.8,-8.14 47.9,-11.44 l 1.9,-0.38 29.1,147.15 -28,-147.37 c 7.5,-1.48 14.9,-2.86 22.2,-4.09 l 1.1,-0.18 c 36.2,-5.98 72.5,-9.03 107.9,-9.03 139,0 269.7,46.67 382.6,135.8 l 203.8,-50.79 c 12,-3.01 24.2,-4.46 36.3,-4.46 46.2,0 90.8,21.46 119.5,59.43 36.3,47.87 40.5,112.74 10.7,164.9 l -109.8,192.6 c 65.4,178.1 38.2,348.87 -80.1,497.13 l -1.1,1.34 c -14.6,18.27 -30.9,36.44 -48.6,54.07 l -1.1,1.17 c -16.7,16.58 -34.8,33.01 -54,48.86 l -0.9,0.79 c -3.8,3.1 -7.6,6.19 -11.5,9.27 141.9,63.01 246.1,144.42 318.2,215.64 160.2,158.32 250.9,356.36 242.5,529.76 -9.9,203.73 -157,340.61 -366.1,340.61 -5,0 -9.9,-0.07 -15,-0.21 -12.9,-0.38 -25.8,-1.22 -38.7,-2.51 -51.5,130.64 -161,208.47 -306.8,208.47 -25.4,0 -52.1,-2.44 -79.2,-7.25 -164.5,-29.21 -377.2,-152.36 -456.5,-573.19 -25.8,-136.73 -32.7,-278.85 -32,-398.79 -8.8,2.13 -17.6,4.23 -26.5,6.32 -5.2,16.44 -12.9,32.21 -22.9,46.9 -4.6,6.86 -9.6,13.27 -14.8,19.25 16.2,39.69 30,80.43 41.4,121.96 140.7,511.86 -112.9,1040.79 -583,1250.12 -16.2,238.05 -67.6,588.65 -222.8,868.14 38.8,124.63 -18.2,262.73 -139.1,321.51 -36.5,17.71 -77.1,27.07 -117.5,27.07 -102.2,0 -197.1,-59.38 -241.7,-151.27 -64.8,-133.28 -9.1,-294.42 124.2,-359.19 26.7,-13 55.7,-21.5 85.2,-25.09 57.3,-147.55 120,-358.63 128.1,-591.21 -14.1,0.58 -28.2,0.87 -42.3,0.87 -73.8,0 -147,-7.81 -218.8,-23.28 -74.9,227.81 -204.5,532.86 -409.3,754.89 3.8,56.94 -10.7,113.38 -42.1,162.31 -38.7,60.41 -98.71,102.11 -168.83,117.41 -18.87,4.11 -38.18,6.2 -57.42,6.2 -125.32,0 -235.7,-88.94 -262.44,-211.47 -31.6,-144.76 60.48,-288.26 205.29,-319.86 18.84,-4.11 38.12,-6.19 57.32,-6.19 10.59,0 21.09,0.61 31.46,1.81 105.83,-151.85 237.02,-383.37 289.82,-654.32 -215.64,-141.54 -375.01,-359.15 -444.23,-611 -75.14,-273.4 -40.55,-559.46 97.4,-805.49 138.29,-246.63 363.83,-423.5 635.03,-498.05" /><path
         id="path40"
         style="fill:#482015;fill-opacity:1;fill-rule:nonzero;stroke:none"
         d="m 7086.47,990.461 127.89,-273.852 123.82,318.081 c 0,0 -231.91,40.42 -251.71,-44.229" /><path
         id="path42"
         style="fill:#6084cb;fill-opacity:1;fill-rule:nonzero;stroke:none"
         d="m 6810.69,1840.38 c 0,0 -818.65,412.94 -1034.94,33.04 -216.29,-379.9 740.51,-448.66 1034.94,-33.04" /><path
         id="path44"
         style="fill:#79a8df;fill-opacity:1;fill-rule:nonzero;stroke:none"
         d="m 6867.9,1864.77 c 0,0 -415.03,717.16 -842.82,631.82 -427.78,-85.34 27.61,-849.61 842.82,-631.82" /><path
         id="path46"
         style="fill:#6084cb;fill-opacity:1;fill-rule:nonzero;stroke:none"
         d="m 7419.26,1972.58 c 0,0 818.65,412.94 1034.94,33.04 216.28,-379.91 -740.52,-448.67 -1034.94,-33.04" /><path
         id="path48"
         style="fill:#79a8df;fill-opacity:1;fill-rule:nonzero;stroke:none"
         d="m 7362.05,1996.97 c 0,0 415.03,717.16 842.81,631.82 427.79,-85.34 -27.61,-849.61 -842.81,-631.82" /><path
         id="path50"
         style="fill:#f68912;fill-opacity:1;fill-rule:nonzero;stroke:none"
         d="m 6799.15,2423.33 c 0,0 -692.46,-956.84 196.99,-1424.701 607.77,-319.688 1274.39,870.161 389.95,1503.051 l -586.94,-78.35" /><path
         id="path52"
         style="fill:#482015;fill-opacity:1;fill-rule:nonzero;stroke:none"
         d="m 6641.82,2132.7 c -36.9,-88.36 -70.42,-191.1 -87.5,-300.02 470.36,-92.96 904.66,-59.25 1251.51,11.98 -15.97,118.6 -56.85,238.46 -127.89,352.45 -409.51,-117.07 -777.98,-103.59 -1036.12,-64.41" /><path
         id="path54"
         style="fill:#482015;fill-opacity:1;fill-rule:nonzero;stroke:none"
         d="m 6568.89,1483.25 c 30.27,-109.7 88.9,-217.02 188.09,-314.32 310.11,-44.05 603.17,-36.77 860.01,-5.41 82.33,99.8 144.57,226.93 175.34,366.73 -419.34,-86.16 -899.56,-72.68 -1223.44,-47" /><path
         id="path56"
         style="fill:#482015;fill-opacity:1;fill-rule:nonzero;stroke:none"
         d="m 6740.24,2395.08 c 0,0 -159.33,-78.36 -104.48,-127.99 54.86,-49.63 65.3,78.36 122.77,18.29 57.46,-60.08 13.06,-99.26 73.13,-104.48 60.08,-5.23 41.79,104.48 107.09,67.91 65.3,-36.57 2.61,-94.03 70.53,-86.2 67.91,7.84 57.46,75.75 114.92,57.47 57.47,-18.29 47.02,-70.53 125.38,-60.08 78.36,10.45 52.24,70.52 114.93,73.13 62.68,2.62 2.61,-80.96 86.19,-41.78 83.58,39.17 26.12,78.35 83.58,94.03 57.47,15.67 52.24,-73.14 117.54,-13.07 65.3,60.08 -122.76,167.17 -122.76,167.17 0,0 -796.65,-39.18 -788.82,-44.4" /><path
         id="path58"
         style="fill:#6084cb;fill-opacity:1;fill-rule:nonzero;stroke:none"
         d="m 11937.7,6266.66 c 0,0 -126.8,1006.57 349.4,1091.11 476.3,84.55 193,-938.37 -349.4,-1091.11" /><path
         id="path60"
         style="fill:#79a8df;fill-opacity:1;fill-rule:nonzero;stroke:none"
         d="m 11937.7,6266.66 c 0,0 269.8,876.19 752.3,890.15 482.4,13.96 180.7,-923.03 -752.3,-890.15" /><path
         id="path62"
         style="fill:#482015;fill-opacity:1;fill-rule:nonzero;stroke:none"
         d="m 12517.1,5631.88 165.8,-290.47 -366.5,91.32 c 0,0 111.6,235.34 200.7,199.15" /><path
         id="path64"
         style="fill:#f68912;fill-opacity:1;fill-rule:nonzero;stroke:none"
         d="m 11272.9,6471.5 c 0,0 1596,-168.78 1271,-855.59 -135.7,-286.71 -630.2,-857.87 -1612.4,593.36 l 341.4,262.23" /><path
         id="path66"
         style="fill:#482015;fill-opacity:1;fill-rule:nonzero;stroke:none"
         d="m 10907.2,6175.48 c 0,0 -87.1,-114.93 -38.3,-139.31 48.8,-24.38 69.7,48.76 118.4,48.76 48.8,0 20.9,-80.1 59.2,-76.62 38.3,3.48 24.4,90.55 80.1,104.48 55.7,13.93 31.4,-62.69 80.1,-38.31 48.8,24.38 -6.9,94.03 59.2,121.89 66.2,27.86 52.3,-66.17 97.5,-17.41 45.3,48.75 -27.8,107.96 24.4,142.79 52.3,34.82 38.3,-66.17 87.1,-10.45 48.7,55.72 -41.8,62.68 20.9,114.93 62.7,52.23 94,-17.42 107.9,52.23 14,69.66 -191.5,73.14 -191.5,73.14 l -505,-376.12" /><path
         id="path68"
         style="fill:#6084cb;fill-opacity:1;fill-rule:nonzero;stroke:none"
         d="m 2277.37,5894.93 c 0,0 -75.22,865 -488.91,849.96 -413.7,-15.05 7.52,-819.87 488.91,-849.96" /><path
         id="path70"
         style="fill:#79a8df;fill-opacity:1;fill-rule:nonzero;stroke:none"
         d="m 2277.37,5894.93 c 0,0 -383.61,684.48 -789.78,609.26 -406.17,-75.22 15.04,-804.82 789.78,-609.26" /><path
         id="path72"
         style="fill:#482015;fill-opacity:1;fill-rule:nonzero;stroke:none"
         d="m 3365.93,7610.79 c 0,0 374.67,752.89 896.31,918.24 0,0 -636.87,-374.71 -805.52,-1027.14 l -90.79,108.9" /><path
         id="path74"
         style="fill:#482015;fill-opacity:1;fill-rule:nonzero;stroke:none"
         d="m 4127.66,8513.93 c -3.5,-65.49 46.75,-121.41 112.23,-124.91 65.49,-3.5 121.41,46.75 124.91,112.23 3.5,65.49 -46.75,121.41 -112.23,124.91 -65.49,3.5 -121.41,-46.75 -124.91,-112.23" /><path
         id="path76"
         style="fill:#482015;fill-opacity:1;fill-rule:nonzero;stroke:none"
         d="m 2817.89,7756.58 c 0,0 186.88,819.94 654.92,1103.46 0,0 -530.75,-514.13 -541.04,-1187.92 l -113.88,84.46" /><path
         id="path78"
         style="fill:#482015;fill-opacity:1;fill-rule:nonzero;stroke:none"
         d="m 3345.57,8813.68 c 12.01,-64.47 74.02,-106.99 138.49,-94.98 64.46,12.02 106.98,74.02 94.97,138.49 -12.02,64.47 -74.02,106.99 -138.49,94.97 -64.47,-12.01 -106.99,-74.02 -94.97,-138.48" /><path
         id="path80"
         style="fill:#482015;fill-opacity:1;fill-rule:nonzero;stroke:none"
         d="m 2147.99,5441.41 -45.13,-203.08 195.56,120.34 c 0,0 -105.3,120.35 -150.43,82.74" /><path
         id="path82"
         style="fill:#f68912;fill-opacity:1;fill-rule:nonzero;stroke:none"
         d="m 2549.46,6248.11 c 0,0 -707.04,-549.08 -353.52,-849.95 353.52,-300.87 759.69,376.09 722.08,767.21 l -368.56,82.74" /><path
         id="path84"
         style="fill:#fab20b;fill-opacity:1;fill-rule:nonzero;stroke:none"
         d="m 3808.65,6997.55 c 0,-504.14 -403.7,-912.82 -901.69,-912.82 -497.99,0 -901.69,408.68 -901.69,912.82 0,504.13 403.7,912.82 901.69,912.82 497.99,0 901.69,-408.69 901.69,-912.82" /><path
         id="path86"
         style="fill:#482015;fill-opacity:1;fill-rule:nonzero;stroke:none"
         d="m 2385.59,6100.87 c -35.64,-35.63 -73.36,-76.12 -109.55,-119.85 165.42,-195.09 373.23,-266.99 532.42,-291.32 33.33,66.15 60.44,136.14 79.64,205.73 -254.13,-7.16 -417.96,116.64 -502.51,205.44" /><path
         id="path88"
         style="fill:#482015;fill-opacity:1;fill-rule:nonzero;stroke:none"
         d="m 2566.43,5388.61 c 55.16,38.57 106.83,92.08 152.82,154.67 -225.18,23.04 -455.84,194.42 -555.28,276.98 -24.46,-43.9 -43.88,-88.67 -55.32,-133.1 137.91,-173.53 311.51,-258.03 457.78,-298.55" /><path
         id="path90"
         style="fill:#482015;fill-opacity:1;fill-rule:nonzero;stroke:none"
         d="m 3060.3,7208.74 c 0,-110.4 -70.77,-199.9 -158.06,-199.9 -87.3,0 -158.06,89.5 -158.06,199.9 0,110.4 70.76,199.9 158.06,199.9 87.29,0 158.06,-89.5 158.06,-199.9" /><path
         id="path92"
         style="fill:#ffffff;fill-opacity:1;fill-rule:nonzero;stroke:none"
         d="m 2899.14,7289.32 c 0,-27.39 -22.2,-49.59 -49.59,-49.59 -27.39,0 -49.59,22.2 -49.59,49.59 0,27.39 22.2,49.59 49.59,49.59 27.39,0 49.59,-22.2 49.59,-49.59" /><path
         id="path94"
         style="fill:#ffffff;fill-opacity:1;fill-rule:nonzero;stroke:none"
         d="m 2985.92,7106.46 c 0,-11.98 -9.71,-21.69 -21.7,-21.69 -11.98,0 -21.69,9.71 -21.69,21.69 0,11.99 9.71,21.7 21.69,21.7 11.99,0 21.7,-9.71 21.7,-21.7" /><path
         id="path96"
         style="fill:#482015;fill-opacity:1;fill-rule:nonzero;stroke:none"
         d="m 3614.56,7109.09 c 0,-89.53 -57.39,-162.1 -128.18,-162.1 -70.79,0 -128.17,72.57 -128.17,162.1 0,89.53 57.38,162.11 128.17,162.11 70.79,0 128.18,-72.58 128.18,-162.11" /><path
         id="path98"
         style="fill:#ffffff;fill-opacity:1;fill-rule:nonzero;stroke:none"
         d="m 3483.87,7174.44 c 0,-22.21 -18,-40.22 -40.21,-40.22 -22.21,0 -40.21,18.01 -40.21,40.22 0,22.21 18,40.21 40.21,40.21 22.21,0 40.21,-18 40.21,-40.21" /><path
         id="path100"
         style="fill:#ffffff;fill-opacity:1;fill-rule:nonzero;stroke:none"
         d="m 3554.24,7026.15 c 0,-9.71 -7.88,-17.59 -17.59,-17.59 -9.72,0 -17.6,7.88 -17.6,17.59 0,9.72 7.88,17.6 17.6,17.6 9.71,0 17.59,-7.88 17.59,-17.6" /><path
         id="path102"
         style="fill:#482015;fill-opacity:1;fill-rule:nonzero;stroke:none"
         d="m 3020.79,6858.25 319.56,-41.23 c 0,0 -41.24,-175.24 -206.17,-144.32 -164.94,30.93 -113.39,185.55 -113.39,185.55" /><path
         id="path104"
         style="fill:#6084cb;fill-opacity:1;fill-rule:nonzero;stroke:none"
         d="m 11024.6,1633.89 c 0,0 -471.1,729.33 -829.7,522.52 -358.58,-206.82 390.2,-721.12 829.7,-522.52" /><path
         id="path106"
         style="fill:#79a8df;fill-opacity:1;fill-rule:nonzero;stroke:none"
         d="m 11015.9,1703.45 c 0,0 -92.2,779.21 -496.2,865.3 -404,86.1 -294.3,-749.2 496.2,-865.3" /><path
         id="path108"
         style="fill:#482015;fill-opacity:1;fill-rule:nonzero;stroke:none"
         d="m 12109.2,3414.84 c 0,0 374.7,752.89 896.3,918.24 0,0 -636.8,-374.72 -805.5,-1027.14 l -90.8,108.9" /><path
         id="path110"
         style="fill:#482015;fill-opacity:1;fill-rule:nonzero;stroke:none"
         d="m 12871,4317.98 c -3.5,-65.49 46.7,-121.41 112.2,-124.91 65.5,-3.5 121.4,46.75 124.9,112.23 3.5,65.49 -46.7,121.41 -112.2,124.91 -65.5,3.5 -121.4,-46.75 -124.9,-112.23" /><path
         id="path112"
         style="fill:#482015;fill-opacity:1;fill-rule:nonzero;stroke:none"
         d="m 11364.4,3317.82 c 0,0 -22,840.68 361.2,1231.27 0,0 -386.9,-629.55 -230,-1284.9 l -131.2,53.63" /><path
         id="path114"
         style="fill:#482015;fill-opacity:1;fill-rule:nonzero;stroke:none"
         d="m 11613.8,4472.66 c 27.6,-59.49 98.2,-85.33 157.7,-57.72 59.5,27.6 85.4,98.2 57.7,157.69 -27.6,59.48 -98.2,85.33 -157.6,57.72 -59.5,-27.61 -85.4,-98.21 -57.8,-157.69" /><path
         id="path116"
         style="fill:#482015;fill-opacity:1;fill-rule:nonzero;stroke:none"
         d="m 10965.7,1124.05 -0.9,-208.03 165.5,159.19 c 0,0 -128.5,95.19 -164.6,48.84" /><path
         id="path118"
         style="fill:#f68912;fill-opacity:1;fill-rule:nonzero;stroke:none"
         d="m 11102.2,2121.69 c 0,0 -611,-679.88 -229.1,-943.86 911.7,-630.291 1012,434.32 974.4,825.45 l -745.3,118.41" /><path
         id="path120"
         style="fill:#fab20b;fill-opacity:1;fill-rule:nonzero;stroke:none"
         d="m 12552,2801.59 c 0,-504.13 -403.7,-912.82 -901.7,-912.82 -498,0 -901.7,408.69 -901.7,912.82 0,504.14 403.7,912.82 901.7,912.82 498,0 901.7,-408.68 901.7,-912.82" /><path
         id="path122"
         style="fill:#482015;fill-opacity:1;fill-rule:nonzero;stroke:none"
         d="m 10779.3,1597.06 c -23.8,-71.64 -36.4,-143.2 -30,-209.41 220.7,-158.7 625.1,-268.66 864.2,-310.8 58.5,52.17 103.8,122.63 138.6,202.61 -333.4,51.81 -787.8,229.42 -972.8,317.6" /><path
         id="path124"
         style="fill:#482015;fill-opacity:1;fill-rule:nonzero;stroke:none"
         d="m 10950.7,1925.1 c -38.4,-56.4 -78.5,-121.26 -112.9,-189.46 292.6,-164.93 751.5,-232.78 976,-243.31 2.2,3.87 4.3,7.78 6.5,11.66 16,79.11 25.5,159.63 30.1,235.59 -343.5,-12 -728.6,97.66 -899.7,185.52" /><path
         id="path126"
         style="fill:#482015;fill-opacity:1;fill-rule:nonzero;stroke:none"
         d="m 11658.4,3044.79 c -19.4,-108.7 -104.7,-184.44 -190.6,-169.16 -86,15.28 -140,115.78 -120.7,224.48 19.3,108.7 104.7,184.44 190.6,169.16 86,-15.28 140,-115.78 120.7,-224.48" /><path
         id="path128"
         style="fill:#ffffff;fill-opacity:1;fill-rule:nonzero;stroke:none"
         d="m 11513.8,3152.33 c -4.8,-26.96 -30.5,-44.94 -57.5,-40.14 -27,4.79 -44.9,30.53 -40.2,57.5 4.8,26.96 30.6,44.93 57.5,40.14 27,-4.79 45,-30.54 40.2,-57.5" /><path
         id="path130"
         style="fill:#ffffff;fill-opacity:1;fill-rule:nonzero;stroke:none"
         d="m 11567.2,2957.11 c -2.1,-11.8 -13.3,-19.66 -25.1,-17.56 -11.8,2.09 -19.7,13.36 -17.6,25.15 2.1,11.8 13.4,19.66 25.2,17.57 11.8,-2.1 19.6,-13.37 17.5,-25.16" /><path
         id="path132"
         style="fill:#482015;fill-opacity:1;fill-rule:nonzero;stroke:none"
         d="m 12272.2,2909.04 c -16.9,-94.7 -91.2,-160.69 -166.1,-147.38 -74.9,13.31 -121.9,100.88 -105.1,195.59 16.8,94.71 91.2,160.69 166.1,147.38 74.8,-13.31 121.9,-100.88 105.1,-195.59" /><path
         id="path134"
         style="fill:#ffffff;fill-opacity:1;fill-rule:nonzero;stroke:none"
         d="m 12146.2,3002.74 c -4.2,-23.49 -26.6,-39.15 -50.1,-34.97 -23.5,4.17 -39.1,26.6 -35,50.1 4.2,23.49 26.6,39.15 50.1,34.97 23.5,-4.17 39.2,-26.6 35,-50.1" /><path
         id="path136"
         style="fill:#ffffff;fill-opacity:1;fill-rule:nonzero;stroke:none"
         d="m 12192.8,2832.65 c -1.9,-10.28 -11.7,-17.13 -21.9,-15.3 -10.3,1.82 -17.2,11.64 -15.4,21.92 1.9,10.27 11.7,17.12 22,15.3 10.2,-1.83 17.1,-11.64 15.3,-21.92" /><path
         id="path138"
         style="fill:#6084cb;fill-opacity:1;fill-rule:nonzero;stroke:none"
         d="m 6011.66,6845.75 c 0,0 511.93,875.88 107.16,1140.68 -404.78,264.81 -546.06,-787.15 -107.16,-1140.68" /><path
         id="path140"
         style="fill:#79a8df;fill-opacity:1;fill-rule:nonzero;stroke:none"
         d="m 6011.66,6845.75 c 0,0 95.95,911.78 -342.26,1114.11 -438.21,202.32 -528.73,-777.88 342.26,-1114.11" /><path
         id="path142"
         style="fill:#482015;fill-opacity:1;fill-rule:nonzero;stroke:none"
         d="m 7816.97,7561.88 c 0,0 374.67,752.89 896.31,918.24 0,0 -636.88,-374.72 -805.52,-1027.14 l -90.79,108.9" /><path
         id="path144"
         style="fill:#482015;fill-opacity:1;fill-rule:nonzero;stroke:none"
         d="m 8578.69,8465.02 c -3.5,-65.49 46.75,-121.41 112.24,-124.91 65.48,-3.5 121.41,46.75 124.91,112.23 3.5,65.49 -46.75,121.41 -112.24,124.91 -65.48,3.5 -121.41,-46.75 -124.91,-112.23" /><path
         id="path146"
         style="fill:#482015;fill-opacity:1;fill-rule:nonzero;stroke:none"
         d="m 7268.92,7707.67 c 0,0 186.88,819.94 654.93,1103.46 0,0 -530.75,-514.13 -541.05,-1187.92 l -113.88,84.46" /><path
         id="path148"
         style="fill:#482015;fill-opacity:1;fill-rule:nonzero;stroke:none"
         d="m 7796.6,8764.76 c 12.02,-64.46 74.02,-106.99 138.49,-94.97 64.47,12.02 106.99,74.02 94.97,138.49 -12.01,64.47 -74.02,106.99 -138.48,94.97 -64.47,-12.02 -106.99,-74.02 -94.98,-138.49" /><path
         id="path150"
         style="fill:#482015;fill-opacity:1;fill-rule:nonzero;stroke:none"
         d="m 5178.43,6474.01 -294.29,-158.85 359.3,-116.35 c 0,0 29.76,258.77 -65.01,275.2" /><path
         id="path152"
         style="fill:#f68912;fill-opacity:1;fill-rule:nonzero;stroke:none"
         d="m 6569.87,6894.11 c 0,0 -1436.44,299.91 -1411.96,-459.53 24.47,-759.43 1227.1,-1187.23 1715.9,-87.61 l -303.94,547.14" /><path
         id="path154"
         style="fill:#fab20b;fill-opacity:1;fill-rule:nonzero;stroke:none"
         d="m 8259.68,6948.63 c 0,-504.13 -403.7,-912.81 -901.68,-912.81 -497.99,0 -901.69,408.68 -901.69,912.81 0,504.14 403.7,912.82 901.69,912.82 497.98,0 901.68,-408.68 901.68,-912.82" /><path
         id="path156"
         style="fill:#482015;fill-opacity:1;fill-rule:nonzero;stroke:none"
         d="m 6073.27,5684.96 c -281.78,390.73 -381.45,952.84 -415.3,1241.96 -105.68,-18.93 -204.57,-50 -286.11,-98.08 -25.7,-412.61 95.05,-778.83 239.78,-1060.37 139.94,-68.12 299.94,-99.73 461.63,-83.51" /><path
         id="path158"
         style="fill:#482015;fill-opacity:1;fill-rule:nonzero;stroke:none"
         d="m 6685.01,6033.07 c -238.91,341.41 -291.62,672.04 -293.9,890.25 -91.76,12.31 -211.1,24.63 -339.42,28.17 -23.03,-475.96 147.48,-881.32 329.92,-1172.95 108.01,57.09 211.16,140.61 303.4,254.53" /><path
         id="path160"
         style="fill:#482015;fill-opacity:1;fill-rule:nonzero;stroke:none"
         d="m 7511.34,7159.83 c 0,-110.41 -70.77,-199.91 -158.07,-199.91 -87.29,0 -158.06,89.5 -158.06,199.91 0,110.4 70.77,199.9 158.06,199.9 87.3,0 158.07,-89.5 158.07,-199.9" /><path
         id="path162"
         style="fill:#ffffff;fill-opacity:1;fill-rule:nonzero;stroke:none"
         d="m 7350.17,7240.41 c 0,-27.39 -22.2,-49.59 -49.58,-49.59 -27.39,0 -49.59,22.2 -49.59,49.59 0,27.39 22.2,49.59 49.59,49.59 27.38,0 49.58,-22.2 49.58,-49.59" /><path
         id="path164"
         style="fill:#ffffff;fill-opacity:1;fill-rule:nonzero;stroke:none"
         d="m 7436.95,7057.55 c 0,-11.98 -9.71,-21.69 -21.69,-21.69 -11.98,0 -21.7,9.71 -21.7,21.69 0,11.98 9.72,21.7 21.7,21.7 11.98,0 21.69,-9.72 21.69,-21.7" /><path
         id="path166"
         style="fill:#482015;fill-opacity:1;fill-rule:nonzero;stroke:none"
         d="m 8065.59,7060.18 c 0,-89.53 -57.38,-162.11 -128.17,-162.11 -70.79,0 -128.18,72.58 -128.18,162.11 0,89.53 57.39,162.11 128.18,162.11 70.79,0 128.17,-72.58 128.17,-162.11" /><path
         id="path168"
         style="fill:#ffffff;fill-opacity:1;fill-rule:nonzero;stroke:none"
         d="m 7934.9,7125.52 c 0,-22.2 -18,-40.21 -40.21,-40.21 -22.21,0 -40.21,18.01 -40.21,40.21 0,22.21 18,40.22 40.21,40.22 22.21,0 40.21,-18.01 40.21,-40.22" /><path
         id="path170"
         style="fill:#ffffff;fill-opacity:1;fill-rule:nonzero;stroke:none"
         d="m 8005.28,6977.24 c 0,-9.71 -7.88,-17.59 -17.6,-17.59 -9.71,0 -17.59,7.88 -17.59,17.59 0,9.72 7.88,17.59 17.59,17.59 9.72,0 17.6,-7.87 17.6,-17.59" /><path
         id="path172"
         style="fill:#482015;fill-opacity:1;fill-rule:nonzero;stroke:none"
         d="m 7619.06,6523.03 c -2.36,0 -4.71,0.03 -7.11,0.09 -206.34,5.74 -251.99,270.88 -253.83,282.17 -2.22,13.63 7.02,26.48 20.65,28.7 13.56,2.16 26.46,-7.01 28.69,-20.64 0.56,-3.27 41.21,-235.67 205.88,-240.24 1.94,-0.06 3.91,-0.08 5.82,-0.08 160.52,0 207.52,187.04 209.47,195.09 3.24,13.41 16.77,21.69 30.13,18.46 13.42,-3.21 21.69,-16.66 18.5,-30.08 -19.41,-81.52 -98.18,-233.47 -258.2,-233.47" /><path
         id="path174"
         style="fill:#6084cb;fill-opacity:1;fill-rule:nonzero;stroke:none"
         d="m 3574.16,2206.2 c 0,0 -339.57,1018.37 137.19,1204.52 476.76,186.15 394.21,-933.91 -137.19,-1204.52" /><path
         id="path176"
         style="fill:#79a8df;fill-opacity:1;fill-rule:nonzero;stroke:none"
         d="m 3574.16,2206.2 c 0,0 99,965.04 596.79,1079.23 497.79,114.18 378.29,-920.53 -596.79,-1079.23" /><path
         id="path178"
         style="fill:#482015;fill-opacity:1;fill-rule:nonzero;stroke:none"
         d="m 2002.99,2884.05 c 0,0 -341.9,687.03 -817.91,837.92 0,0 581.16,-341.94 735.06,-937.29 l 82.85,99.37" /><path
         id="path180"
         style="fill:#482015;fill-opacity:1;fill-rule:nonzero;stroke:none"
         d="m 1307.89,3708.18 c 3.19,-59.75 -42.66,-110.78 -102.42,-113.98 -59.75,-3.19 -110.78,42.66 -113.98,102.42 -3.19,59.76 42.66,110.79 102.42,113.98 59.76,3.19 110.79,-42.66 113.98,-102.42" /><path
         id="path182"
         style="fill:#482015;fill-opacity:1;fill-rule:nonzero;stroke:none"
         d="m 2503.09,3017.09 c 0,0 -170.53,748.21 -597.63,1006.93 0,0 484.32,-469.15 493.71,-1084.01 l 103.92,77.08" /><path
         id="path184"
         style="fill:#482015;fill-opacity:1;fill-rule:nonzero;stroke:none"
         d="m 2021.57,3981.71 c -10.97,-58.83 -67.55,-97.63 -126.37,-86.67 -58.83,10.97 -97.64,67.55 -86.67,126.38 10.97,58.83 67.54,97.63 126.37,86.66 58.83,-10.96 97.63,-67.54 86.67,-126.37" /><path
         id="path186"
         style="fill:#482015;fill-opacity:1;fill-rule:nonzero;stroke:none"
         d="m 4410.72,1891.34 268.54,-144.95 -327.87,-106.17 c 0,0 -27.15,236.13 59.33,251.12" /><path
         id="path188"
         style="fill:#f68912;fill-opacity:1;fill-rule:nonzero;stroke:none"
         d="m 3140.99,2274.69 c 0,0 1310.79,273.68 1288.45,-419.33 -22.33,-693 -1579.03,-1080.13 -2025.07,-76.71 l 736.62,496.04" /><path
         id="path190"
         style="fill:#fab20b;fill-opacity:1;fill-rule:nonzero;stroke:none"
         d="m 1599,2324.45 c 0,-460.04 368.38,-832.97 822.81,-832.97 454.42,0 822.81,372.93 822.81,832.97 0,460.03 -368.39,832.97 -822.81,832.97 -454.43,0 -822.81,-372.94 -822.81,-832.97" /><path
         id="path192"
         style="fill:#482015;fill-opacity:1;fill-rule:nonzero;stroke:none"
         d="m 3609.33,1185.7 c 199.23,30.69 386.13,103.18 531.09,205.39 99.45,216.96 175.1,470.83 186.71,751.69 -71.36,73.88 -174.15,120.47 -289.93,148.4 -53.42,-279.5 -175.25,-752.62 -427.87,-1105.48" /><path
         id="path194"
         style="fill:#482015;fill-opacity:1;fill-rule:nonzero;stroke:none"
         d="m 2867.85,1287.89 c 120.77,-60.31 252.11,-95.93 385.64,-110.61 183.49,276.91 373.77,715.74 394.57,1150.46 -131.64,-1.79 -255.25,-14.38 -347.47,-26.87 -15.18,-226.3 -56.84,-595.92 -432.74,-1012.98" /><path
         id="path196"
         style="fill:#482015;fill-opacity:1;fill-rule:nonzero;stroke:none"
         d="m 2358.5,2586.82 c 0,-100.75 64.58,-182.42 144.24,-182.42 79.65,0 144.23,81.67 144.23,182.42 0,100.75 -64.58,182.42 -144.23,182.42 -79.66,0 -144.24,-81.67 -144.24,-182.42" /><path
         id="path198"
         style="fill:#ffffff;fill-opacity:1;fill-rule:nonzero;stroke:none"
         d="m 2505.56,2660.35 c 0,-24.99 20.26,-45.25 45.25,-45.25 25,0 45.25,20.26 45.25,45.25 0,24.99 -20.25,45.25 -45.25,45.25 -24.99,0 -45.25,-20.26 -45.25,-45.25" /><path
         id="path200"
         style="fill:#ffffff;fill-opacity:1;fill-rule:nonzero;stroke:none"
         d="m 2426.38,2493.49 c 0,-10.93 8.86,-19.8 19.79,-19.8 10.94,0 19.8,8.87 19.8,19.8 0,10.93 -8.86,19.8 -19.8,19.8 -10.93,0 -19.79,-8.87 -19.79,-19.8" /><path
         id="path202"
         style="fill:#482015;fill-opacity:1;fill-rule:nonzero;stroke:none"
         d="m 1843.37,2480.4 c 0,-81.69 52.36,-147.92 116.96,-147.92 64.6,0 116.96,66.23 116.96,147.92 0,81.7 -52.36,147.93 -116.96,147.93 -64.6,0 -116.96,-66.23 -116.96,-147.93" /><path
         id="path204"
         style="fill:#ffffff;fill-opacity:1;fill-rule:nonzero;stroke:none"
         d="m 1962.62,2540.03 c 0,-20.26 16.43,-36.69 36.7,-36.69 20.26,0 36.69,16.43 36.69,36.69 0,20.27 -16.43,36.7 -36.69,36.7 -20.27,0 -36.7,-16.43 -36.7,-36.7" /><path
         id="path206"
         style="fill:#ffffff;fill-opacity:1;fill-rule:nonzero;stroke:none"
         d="m 1898.41,2404.72 c 0,-8.87 7.19,-16.05 16.05,-16.05 8.87,0 16.06,7.18 16.06,16.05 0,8.87 -7.19,16.05 -16.06,16.05 -8.86,0 -16.05,-7.18 -16.05,-16.05" /><path
         id="path208"
         style="fill:#482015;fill-opacity:1;fill-rule:nonzero;stroke:none"
         d="m 2172.15,2133.52 c 0,0 47.67,-200.22 219.28,-195.45 171.61,4.77 209.75,238.35 209.75,238.35 0,0 -293.83,-48.49 -429.03,-42.9" /><path
         id="path210"
         style="fill:#482015;fill-opacity:1;fill-rule:nonzero;stroke:none"
         d="m 10455.5,7719.6 c 0,0 -161.7,825.27 -620.88,1122.95 0,0 514.78,-530.1 504.48,-1203.89 l 116.4,80.94" /><path
         id="path212"
         style="fill:#482015;fill-opacity:1;fill-rule:nonzero;stroke:none"
         d="m 9960.38,8792.32 c -13.98,-64.07 -77.25,-104.68 -141.32,-90.7 -64.07,13.98 -104.68,77.26 -90.7,141.33 13.98,64.07 77.25,104.68 141.33,90.69 64.07,-13.98 104.67,-77.25 90.69,-141.32" /><path
         id="path214"
         style="fill:#482015;fill-opacity:1;fill-rule:nonzero;stroke:none"
         d="m 11022.6,7714.93 c 0,0 37.1,840.15 -339.1,1237.57 0,0 375.6,-636.4 206.9,-1288.83 l 132.2,51.26" /><path
         id="path216"
         style="fill:#482015;fill-opacity:1;fill-rule:nonzero;stroke:none"
         d="m 10793.9,8874.07 c -28.6,-58.97 -99.7,-83.54 -158.7,-54.87 -58.9,28.68 -83.5,99.73 -54.8,158.71 28.6,58.98 99.7,83.54 158.7,54.87 59,-28.67 83.5,-99.73 54.8,-158.71" /><path
         id="path218"
         style="fill:#fab20b;fill-opacity:1;fill-rule:nonzero;stroke:none"
         d="m 9866.11,7245.62 c -133.61,-486.12 147.39,-987.17 627.49,-1119.15 480.2,-131.98 977.8,155.1 1111.4,641.21 133.6,486.11 -147.3,987.17 -627.5,1119.14 -480.2,131.98 -977.78,-155.1 -1111.39,-641.2" /><path
         id="path220"
         style="fill:#482015;fill-opacity:1;fill-rule:nonzero;stroke:none"
         d="m 11372.8,5651.57 c 206.6,164.79 416.3,388.17 561.5,681.73 -122.1,38.17 -244.4,67.01 -350.1,88.21 -96.6,-154.81 -243,-327.28 -462.9,-476 88.2,-114.54 172,-211.86 251.5,-293.94" /><path
         id="path222"
         style="fill:#482015;fill-opacity:1;fill-rule:nonzero;stroke:none"
         d="m 12527.7,5982.24 c -54.8,81.83 -143.3,151 -248.6,209.2 -144.5,-230.06 -373.8,-542.52 -661.2,-757.08 134.8,-98.46 254.1,-149.15 358.8,-166.47 204,174.39 412.5,409.98 551,714.35" /><path
         id="path224"
         style="fill:#482015;fill-opacity:1;fill-rule:nonzero;stroke:none"
         d="m 10643.7,7250.93 c -29.3,-106.46 15.2,-211.51 99.4,-234.65 84.2,-23.13 176.1,44.41 205.4,150.87 29.2,106.45 -15.3,211.5 -99.4,234.64 -84.2,23.14 -176.2,-44.41 -205.4,-150.86" /><path
         id="path226"
         style="fill:#ffffff;fill-opacity:1;fill-rule:nonzero;stroke:none"
         d="m 10820.4,7285.92 c -7.2,-26.41 8.3,-53.7 34.7,-60.96 26.4,-7.26 53.7,8.26 61,34.67 7.2,26.41 -8.3,53.7 -34.7,60.96 -26.4,7.26 -53.7,-8.27 -61,-34.67" /><path
         id="path228"
         style="fill:#ffffff;fill-opacity:1;fill-rule:nonzero;stroke:none"
         d="m 10688.3,7132.6 c -3.2,-11.56 3.6,-23.5 15.2,-26.67 11.5,-3.18 23.4,3.61 26.6,15.17 3.2,11.55 -3.6,23.49 -15.1,26.67 -11.6,3.17 -23.5,-3.62 -26.7,-15.17" /><path
         id="path230"
         style="fill:#482015;fill-opacity:1;fill-rule:nonzero;stroke:none"
         d="m 10082.8,7301.73 c -23.7,-86.32 12.4,-171.51 80.7,-190.27 68.2,-18.76 142.8,36.01 166.5,122.33 23.7,86.33 -12.4,171.52 -80.6,190.28 -68.3,18.76 -142.9,-36.01 -166.6,-122.34" /><path
         id="path232"
         style="fill:#ffffff;fill-opacity:1;fill-rule:nonzero;stroke:none"
         d="m 10226.2,7330.1 c -5.9,-21.41 6.7,-43.54 28.1,-49.43 21.4,-5.88 43.5,6.71 49.4,28.12 5.9,21.42 -6.7,43.55 -28.1,49.43 -21.4,5.89 -43.6,-6.7 -49.4,-28.12" /><path
         id="path234"
         style="fill:#ffffff;fill-opacity:1;fill-rule:nonzero;stroke:none"
         d="m 10119,7205.78 c -2.6,-9.37 2.9,-19.06 12.3,-21.63 9.4,-2.58 19.1,2.93 21.6,12.3 2.6,9.37 -2.9,19.05 -12.3,21.63 -9.3,2.57 -19,-2.94 -21.6,-12.3" /><path
         id="path236"
         style="fill:#482015;fill-opacity:1;fill-rule:nonzero;stroke:none"
         d="m 10365.7,6830.21 c 0,-60.59 -28.1,-109.7 -62.7,-109.7 -34.6,0 -62.7,49.11 -62.7,109.7 0,60.59 28.1,109.7 62.7,109.7 34.6,0 62.7,-49.11 62.7,-109.7" /><path
         id="path238"
         style="fill:#482015;fill-opacity:1;fill-rule:nonzero;stroke:none"
         d="m 7346.42,3721.43 c 0,0 122.55,750.1 528.83,1032.11 0,0 -449.9,-493.55 -421.37,-1101.9 l -107.46,69.79" /><path
         id="path240"
         style="fill:#482015;fill-opacity:1;fill-rule:nonzero;stroke:none"
         d="m 7763.07,4704.58 c 14.46,-57.48 72.77,-92.35 130.25,-77.9 57.48,14.46 92.36,72.78 77.9,130.25 -14.46,57.48 -72.78,92.36 -130.25,77.9 -57.48,-14.46 -92.36,-72.77 -77.9,-130.25" /><path
         id="path242"
         style="fill:#482015;fill-opacity:1;fill-rule:nonzero;stroke:none"
         d="m 6845.41,3675.47 c 0,0 -106.75,752.51 -507.01,1043 0,0 439.42,-502.9 398.11,-1110.52 l 108.9,67.52" /><path
         id="path244"
         style="fill:#482015;fill-opacity:1;fill-rule:nonzero;stroke:none"
         d="m 6449.52,4667.16 c -15.66,-57.16 -74.7,-90.81 -131.86,-75.14 -57.16,15.66 -90.8,74.69 -75.14,131.86 15.67,57.16 74.7,90.8 131.86,75.14 57.16,-15.67 90.8,-74.7 75.14,-131.86" /><path
         id="path246"
         style="fill:#fab20b;fill-opacity:1;fill-rule:nonzero;stroke:none"
         d="m 7892.38,3310.09 c 134.56,-435.3 -104.93,-895.94 -534.92,-1028.86 -429.99,-132.93 -887.66,112.2 -1022.22,547.5 -134.57,435.3 104.92,895.94 534.91,1028.86 430,132.93 887.66,-112.2 1022.23,-547.5" /><path
         id="path248"
         style="fill:#482015;fill-opacity:1;fill-rule:nonzero;stroke:none"
         d="m 6957.94,3172.17 c 8.47,-99.42 -48.39,-185.45 -127,-192.14 -78.61,-6.7 -149.21,68.47 -157.67,167.89 -8.47,99.42 48.39,185.44 127,192.14 78.61,6.69 149.2,-68.47 157.67,-167.89" /><path
         id="path250"
         style="fill:#ffffff;fill-opacity:1;fill-rule:nonzero;stroke:none"
         d="m 6806.63,3232.37 c 2.1,-24.66 -16.19,-46.36 -40.85,-48.46 -24.66,-2.1 -46.36,16.19 -48.46,40.85 -2.1,24.66 16.19,46.36 40.85,48.46 24.66,2.1 46.36,-16.19 48.46,-40.85" /><path
         id="path252"
         style="fill:#ffffff;fill-opacity:1;fill-rule:nonzero;stroke:none"
         d="m 6898.8,3074.36 c 0.92,-10.79 -7.08,-20.28 -17.87,-21.2 -10.79,-0.92 -20.28,7.08 -21.2,17.87 -0.92,10.79 7.08,20.28 17.87,21.2 10.79,0.92 20.28,-7.08 21.2,-17.87" /><path
         id="path254"
         style="fill:#482015;fill-opacity:1;fill-rule:nonzero;stroke:none"
         d="m 7628.13,3186.38 c 8.47,-99.42 -48.39,-185.44 -127,-192.14 -78.61,-6.7 -149.21,68.47 -157.67,167.89 -8.47,99.42 48.39,185.44 127,192.14 78.61,6.7 149.2,-68.47 157.67,-167.89" /><path
         id="path256"
         style="fill:#ffffff;fill-opacity:1;fill-rule:nonzero;stroke:none"
         d="m 7476.82,3246.58 c 2.1,-24.66 -16.19,-46.36 -40.85,-48.46 -24.66,-2.1 -46.36,16.19 -48.46,40.85 -2.1,24.67 16.19,46.36 40.85,48.46 24.66,2.1 46.36,-16.18 48.46,-40.85" /><path
         id="path258"
         style="fill:#ffffff;fill-opacity:1;fill-rule:nonzero;stroke:none"
         d="m 7568.99,3088.57 c 0.92,-10.78 -7.08,-20.28 -17.87,-21.2 -10.79,-0.91 -20.28,7.09 -21.2,17.88 -0.92,10.79 7.08,20.28 17.87,21.2 10.79,0.92 20.28,-7.09 21.2,-17.88" /><path
         id="path260"
         style="fill:#482015;fill-opacity:1;fill-rule:nonzero;stroke:none"
         d="m 7175.95,2601.97 c -241.3,0 -307.56,240.88 -308.21,243.34 -3.52,13.35 4.46,27.02 17.81,30.54 13.34,3.53 27,-4.43 30.53,-17.76 2.32,-8.66 57.67,-206.12 259.91,-206.12 2.03,0 4.06,0.02 6.12,0.07 209.3,4.06 262.22,185.06 262.72,186.89 3.71,13.29 17.48,21.04 30.8,17.36 13.31,-3.71 21.08,-17.5 17.37,-30.8 -0.62,-2.19 -63.86,-218.66 -309.91,-223.45 -2.39,-0.04 -4.79,-0.07 -7.14,-0.07" /><path
         id="path262"
         style="fill:#482015;fill-opacity:1;fill-rule:nonzero;stroke:none"
         d="m 11971.1,2406.44 c -11.8,0 -22.3,8.4 -24.6,20.43 -1.4,7.29 -34.4,171.22 -199.7,180.53 -166.1,9.68 -218.8,-127.23 -221,-133.05 -4.8,-12.91 -19.1,-19.54 -32,-14.83 -13,4.74 -19.6,19.01 -14.9,31.95 0.6,1.77 66.7,177.05 270.7,165.85 205.2,-11.56 245.7,-219.26 246.1,-221.36 2.5,-13.58 -6.5,-26.61 -20.1,-29.11 -1.5,-0.29 -3,-0.41 -4.5,-0.41" /><path
         id="path264"
         style="fill:#ffffff;fill-opacity:1;fill-rule:nonzero;stroke:none"
         d="m 7322.79,423 c 8.46,0 16.24,-7.379 16.24,-7.379 l -139.45,-297.84 c -15.27,0 -51.92,-2.172 -60.87,-2.172 -8.44,0 -16.24,7.371 -16.24,7.371 l -47.68,297.84 c 28.92,0 65.08,2.18 75.91,2.18 8.48,0 16.24,-7.379 16.24,-7.379 l 14.58,-145.711 c 1.26,-12.551 1.35,-29.969 0.85,-48.32 4.69,20.031 9.84,38.992 14.89,51.789 l 57.97,147.473 c 25.71,0 57.62,2.148 67.53,2.148 h 0.03" /><path
         id="path266"
         style="fill:#ffffff;fill-opacity:1;fill-rule:nonzero;stroke:none"
         d="m 7386.46,244.902 c 10.1,3.18 13.12,11.508 13.12,21.039 0,8.969 -2.9,22.379 -13.32,22.379 -18.76,0 -27.02,-30.289 -30.01,-53 z m 80.02,31.161 c 0,-32.434 -18.1,-53.872 -63.21,-63.172 l -47.33,-9.77 c 3.64,-20.402 16.45,-30.371 37.74,-30.371 26.07,0 43.52,19.68 43.52,19.68 0,0 13.3,-7.418 13.3,-22.649 0,-27.019 -41.44,-56.332 -89.64,-56.332 -48.9,0 -80.81,30.903 -80.81,83.082 0,60.282 42.71,142.059 118.72,142.059 41.63,0 67.71,-24.649 67.71,-62.527" /><path
         id="path268"
         style="fill:#ffffff;fill-opacity:1;fill-rule:nonzero;stroke:none"
         d="m 7593.91,338.59 c 38.35,0 67.17,-20.328 67.17,-46.719 0,-33 -39.95,-45.058 -39.95,-45.058 0,0 -11.72,36.039 -38.58,36.039 -18.2,0 -28.68,-18.411 -28.68,-57.672 0,-36.16 9.52,-52.43 32.91,-52.43 24.01,0 38.78,16.352 38.78,16.352 0,0 13.32,-7.411 13.32,-22.223 0,-25.859 -39.8,-53.43 -86.14,-53.43 -49.34,0 -79.74,30.903 -79.74,82.274 0,61.09 43.67,142.867 120.94,142.867 h -0.03" /><path
         id="path270"
         style="fill:#ffffff;fill-opacity:1;fill-rule:nonzero;stroke:none"
         d="m 7778.18,386.719 c 9.24,0 15.39,-7.047 15.39,-7.047 l -7.22,-45.43 h 48.12 l -10.85,-34.633 c -3.52,-11.148 -9.06,-17.308 -20.34,-17.308 h -25.14 l -14.02,-88.512 c -2.28,-14.309 0.84,-20.93 10.58,-21.039 8.85,-0.059 17.58,5.402 17.58,5.402 0,0 13.43,-7.48 13.43,-21.523 0,-21.668 -30.91,-43.18 -70.01,-43.18 -41.48,0 -58.21,25.383 -51.18,69.793 l 15.66,99.059 h -26.1 l 11.36,36.129 c 2.92,9.269 10.57,15.812 19.93,15.812 h 12.69 l 15.21,41.821 c 18.83,4.617 36.37,10.656 44.91,10.656" /><path
         id="path272"
         style="fill:#ffffff;fill-opacity:1;fill-rule:nonzero;stroke:none"
         d="m 7931.82,244.902 c 10.09,3.18 13.12,11.508 13.12,21.039 0,8.969 -2.92,22.379 -13.32,22.379 -18.76,0 -27.05,-30.289 -30.02,-53 z m 80,31.161 c 0,-32.434 -18.09,-53.872 -63.2,-63.172 l -47.34,-9.77 c 3.66,-20.402 16.47,-30.371 37.73,-30.371 26.07,0 43.53,19.68 43.53,19.68 0,0 13.32,-7.418 13.32,-22.649 0,-27.019 -41.44,-56.332 -89.64,-56.332 -48.92,0 -80.81,30.903 -80.81,83.082 0,60.282 42.69,142.059 118.72,142.059 41.62,0 67.71,-24.649 67.71,-62.527 h -0.02" /><path
         id="path274"
         style="fill:#ffffff;fill-opacity:1;fill-rule:nonzero;stroke:none"
         d="m 8124.89,244.902 c 10.09,3.18 13.12,11.508 13.12,21.039 0,8.969 -2.94,22.379 -13.32,22.379 -18.76,0 -27.05,-30.289 -30.03,-53 z m 79.99,31.161 c 0,-32.434 -18.09,-53.872 -63.19,-63.172 l -47.34,-9.77 c 3.64,-20.402 16.46,-30.371 37.73,-30.371 26.1,0 43.52,19.68 43.52,19.68 0,0 13.33,-7.418 13.33,-22.649 0,-27.019 -41.44,-56.332 -89.64,-56.332 -48.92,0 -80.83,30.903 -80.83,83.082 0,60.282 42.73,142.059 118.72,142.059 41.64,0 67.73,-24.649 67.73,-62.527 h -0.03" /><path
         id="path276"
         style="fill:#ffffff;fill-opacity:1;fill-rule:nonzero;stroke:none"
         d="m 8362.82,195.199 c 0,0 16.28,-15.027 16.28,-39.898 0,-33.172 -28.09,-41.852 -51.63,-41.852 -30.67,0 -52.98,14.621 -76.32,22.512 -6.5,-7.5 -12.87,-15.02 -18.98,-22.512 0,0 -34.57,0.871 -34.57,24.422 0,28.719 47.86,77.969 99.44,133.789 -5.95,1.059 -11.65,1.801 -16.8,1.801 -29.32,0 -40.68,-14.652 -40.68,-14.652 0,0 -15.08,17.343 -13.81,39.91 1.71,31.293 31.47,39.871 54.84,39.871 24.78,0 42.97,-9.578 60.86,-17.418 l 14.52,17.418 c 0,0 34.88,-1.078 34.88,-24.75 0,-27.699 -46.33,-76.07 -96.41,-130.07 10.6,-2.961 20.46,-5.36 30.25,-5.36 25.98,0 38.13,16.789 38.13,16.789" /><path
         id="path278"
         style="fill:#ffffff;fill-opacity:1;fill-rule:nonzero;stroke:none"
         d="M 8587.27,132.551 C 8574.83,56.7305 8522.86,18.1992 8457.08,18.1992 c -42,0 -73.35,22.0625 -73.35,47.6328 0,16.8672 14.04,24.6797 14.04,24.6797 0,0 14.28,-13 42.43,-13 26.41,0 62.21,11.2578 68.49,51.1093 l 4.94,31.02 c -17.72,-25.5 -41.24,-46.192 -70.94,-46.192 -33.38,0 -48.24,27.313 -39.45,82.801 l 9.5,60.07 c 5.84,36.789 7.44,66.801 7.44,66.801 23.75,4.391 55.07,15.469 66.03,15.469 8.49,0 16.36,-7.078 16.36,-7.078 l -11.89,-75.192 -11,-69.359 c -1.01,-6.398 0.2,-9.988 6,-9.988 27.66,0 43.26,79.347 43.26,79.347 5.81,36.789 7.43,66.801 7.43,66.801 23.72,4.391 55.05,15.469 66.01,15.469 8.5,0 16.38,-7.078 16.38,-7.078 l -11.91,-75.192 -19.58,-123.769" /><path
         id="path280"
         style="fill:#ffffff;fill-opacity:1;fill-rule:nonzero;stroke:none"
         d="M 5421.98,292.301 V 158.672 h 30.41 c 11.38,0 19.59,0.641 24.64,1.918 6.6,1.652 12.08,4.449 16.44,8.402 4.36,3.938 7.91,10.43 10.67,19.477 2.75,9.023 4.13,21.351 4.13,36.941 0,15.602 -1.38,27.57 -4.13,35.922 -2.76,8.348 -6.61,14.867 -11.56,19.547 -4.96,4.672 -11.24,7.84 -18.86,9.492 -5.69,1.289 -16.83,1.93 -33.44,1.93 z m -40.74,34.129 h 74.45 c 16.79,0 29.59,-1.289 38.4,-3.848 11.84,-3.492 21.97,-9.684 30.42,-18.582 8.44,-8.898 14.86,-19.809 19.26,-32.68 4.41,-12.91 6.61,-28.8 6.61,-47.699 0,-16.601 -2.07,-30.91 -6.19,-42.93 -5.05,-14.679 -12.25,-26.562 -21.61,-35.652 -7.06,-6.879 -16.61,-12.25 -28.63,-16.098 -8.99,-2.851 -21.01,-4.269 -36.05,-4.269 h -76.66 V 326.43" /><path
         id="path282"
         style="fill:#ffffff;fill-opacity:1;fill-rule:nonzero;stroke:none"
         d="m 5665.85,210.281 c -0.27,11.188 -3.16,19.688 -8.67,25.528 -5.5,5.812 -12.2,8.73 -20.09,8.73 -8.44,0 -15.42,-3.07 -20.92,-9.219 -5.5,-6.148 -8.21,-14.488 -8.12,-25.039 z m -2.2,-39.09 38.54,-6.472 c -4.96,-14.129 -12.78,-24.887 -23.47,-32.278 -10.69,-7.39 -24.06,-11.07 -40.12,-11.07 -25.41,0 -44.22,8.301 -56.42,24.91 -9.64,13.301 -14.45,30.09 -14.45,50.367 0,24.223 6.33,43.184 18.99,56.903 12.66,13.719 28.67,20.578 48.03,20.578 21.74,0 38.9,-7.188 51.47,-21.527 12.57,-14.372 18.58,-36.36 18.03,-66 h -96.89 c 0.28,-11.473 3.4,-20.403 9.36,-26.762 5.96,-6.391 13.4,-9.57 22.3,-9.57 6.05,0 11.14,1.652 15.27,4.949 4.13,3.312 7.25,8.633 9.36,15.972" /><path
         id="path284"
         style="fill:#ffffff;fill-opacity:1;fill-rule:nonzero;stroke:none"
         d="m 5716.5,166.371 38.81,5.918 c 1.65,-7.519 5,-13.238 10.04,-17.129 5.05,-3.91 12.12,-5.847 21.2,-5.847 10,0 17.52,1.828 22.57,5.5 3.39,2.566 5.09,6.007 5.09,10.316 0,2.941 -0.92,5.371 -2.75,7.301 -1.93,1.832 -6.24,3.531 -12.94,5.09 -31.19,6.882 -50.96,13.171 -59.31,18.851 -11.56,7.899 -17.34,18.859 -17.34,32.899 0,12.66 5,23.3 15,31.921 10,8.629 25.5,12.938 46.51,12.938 20,0 34.87,-3.258 44.59,-9.77 9.73,-6.507 16.43,-16.148 20.1,-28.898 l -36.47,-6.742 c -1.56,5.683 -4.52,10.043 -8.88,13.07 -4.36,3.031 -10.57,4.543 -18.65,4.543 -10.18,0 -17.48,-1.422 -21.88,-4.262 -2.94,-2.019 -4.4,-4.64 -4.4,-7.851 0,-2.75 1.28,-5.09 3.85,-7.02 3.49,-2.57 15.53,-6.187 36.12,-10.867 20.6,-4.684 34.98,-10.41 43.15,-17.203 8.07,-6.879 12.11,-16.469 12.11,-28.77 0,-13.386 -5.6,-24.91 -16.79,-34.539 -11.19,-9.629 -27.75,-14.449 -49.68,-14.449 -19.91,0 -35.67,4.039 -47.27,12.109 -11.61,8.083 -19.2,19.04 -22.78,32.891" /><path
         id="path286"
         style="fill:#ffffff;fill-opacity:1;fill-rule:nonzero;stroke:none"
         d="m 5881.24,124.672 v 146.16 h 38.67 v -146.16 z m 0,165.98 v 35.778 h 38.67 v -35.778 h -38.67" /><path
         id="path288"
         style="fill:#ffffff;fill-opacity:1;fill-rule:nonzero;stroke:none"
         d="m 5984.88,200.781 c 0,-15.511 3,-26.871 9.01,-34.062 6.01,-7.207 13.42,-10.809 22.23,-10.809 9.45,0 17.43,3.692 23.95,11.09 6.51,7.371 9.77,18.32 9.77,32.813 0,15.136 -3.12,26.378 -9.36,33.718 -6.24,7.34 -14.13,11.008 -23.67,11.008 -9.27,0 -16.91,-3.598 -22.92,-10.809 -6.01,-7.199 -9.01,-18.179 -9.01,-32.949 z m -34.54,-85.742 44.17,-5.367 c 0.74,-5.141 2.44,-8.672 5.1,-10.6017 3.67,-2.75 9.45,-4.1211 17.34,-4.1211 10.09,0 17.66,1.5117 22.7,4.543 3.4,2.0198 5.97,5.2698 7.71,9.7698 1.19,3.207 1.79,9.129 1.79,17.75 v 21.328 c -11.56,-15.781 -26.15,-23.668 -43.76,-23.668 -19.64,0 -35.19,8.308 -46.66,24.91 -8.99,13.117 -13.49,29.449 -13.49,49 0,24.488 5.9,43.207 17.69,56.148 11.79,12.93 26.45,19.399 43.97,19.399 18.07,0 32.98,-7.93 44.73,-23.809 v 20.512 h 36.19 v -131.16 c 0,-17.25 -1.42,-30.141 -4.26,-38.672 -2.85,-8.5312 -6.84,-15.2305 -11.98,-20.0898 -5.14,-4.8711 -11.99,-8.668 -20.57,-11.4297 -8.58,-2.75 -19.43,-4.1211 -32.55,-4.1211 -24.77,0 -42.34,4.25 -52.71,12.7422 -10.37,8.4804 -15.55,19.2304 -15.55,32.2574 0,1.289 0.04,2.852 0.14,4.68" /><path
         id="path290"
         style="fill:#ffffff;fill-opacity:1;fill-rule:nonzero;stroke:none"
         d="m 6253.39,124.672 h -38.67 v 74.598 c 0,15.781 -0.83,25.972 -2.48,30.609 -1.65,4.633 -4.33,8.242 -8.05,10.812 -3.72,2.571 -8.19,3.848 -13.42,3.848 -6.7,0 -12.7,-1.828 -18.03,-5.5 -5.32,-3.668 -8.96,-8.527 -10.94,-14.59 -1.97,-6.058 -2.96,-17.25 -2.96,-33.578 v -66.199 h -38.67 v 146.16 h 35.92 v -21.473 c 12.75,16.512 28.81,24.77 48.17,24.77 8.53,0 16.33,-1.539 23.4,-4.617 7.06,-3.071 12.4,-6.992 16.03,-11.762 3.62,-4.77 6.15,-10.18 7.57,-16.23 1.42,-6.059 2.13,-14.731 2.13,-26.008 v -90.84" /><path
         id="path292"
         style="fill:#ffffff;fill-opacity:1;fill-rule:nonzero;stroke:none"
         d="m 6373.81,210.281 c -0.27,11.188 -3.16,19.688 -8.67,25.528 -5.5,5.812 -12.2,8.73 -20.09,8.73 -8.44,0 -15.42,-3.07 -20.92,-9.219 -5.51,-6.148 -8.21,-14.488 -8.12,-25.039 z m -2.2,-39.09 38.53,-6.472 c -4.95,-14.129 -12.77,-24.887 -23.46,-32.278 -10.69,-7.39 -24.06,-11.07 -40.12,-11.07 -25.41,0 -44.22,8.301 -56.42,24.91 -9.64,13.301 -14.45,30.09 -14.45,50.367 0,24.223 6.33,43.184 18.99,56.903 12.66,13.719 28.67,20.578 48.03,20.578 21.74,0 38.9,-7.188 51.47,-21.527 12.57,-14.372 18.58,-36.36 18.03,-66 h -96.89 c 0.28,-11.473 3.4,-20.403 9.36,-26.762 5.96,-6.391 13.4,-9.57 22.3,-9.57 6.05,0 11.14,1.652 15.27,4.949 4.13,3.312 7.25,8.633 9.36,15.972" /><path
         id="path294"
         style="fill:#ffffff;fill-opacity:1;fill-rule:nonzero;stroke:none"
         d="m 6468.92,200.922 c 0,-15.602 2.15,-26.891 6.47,-33.863 6.23,-10.086 14.95,-15.137 26.14,-15.137 8.9,0 16.47,3.801 22.71,11.348 6.24,7.582 9.36,18.882 9.36,33.929 0,16.793 -3.03,28.871 -9.08,36.262 -6.06,7.379 -13.81,11.078 -23.26,11.078 -9.18,0 -16.86,-3.648 -23.05,-10.93 -6.2,-7.308 -9.29,-18.199 -9.29,-32.687 z m 103.22,-76.25 h -35.92 v 21.469 c -5.97,-8.352 -13.01,-14.571 -21.13,-18.649 -8.12,-4.07 -16.31,-6.121 -24.57,-6.121 -16.79,0 -31.17,6.758 -43.14,20.309 -11.97,13.519 -17.96,32.402 -17.96,56.621 0,24.769 5.83,43.601 17.48,56.5 11.65,12.879 26.38,19.328 44.17,19.328 16.34,0 30.47,-6.789 42.39,-20.367 v 72.668 h 38.68 V 124.672" /><path
         id="path296"
         style="fill:#ffffff;fill-opacity:1;fill-rule:nonzero;stroke:none"
         d="m 6714.03,200.922 c 0,-15.141 2.39,-26.34 7.16,-33.582 6.7,-10.281 15.6,-15.418 26.7,-15.418 8.53,0 15.8,3.641 21.81,10.949 6.01,7.281 9.02,18.777 9.02,34.469 0,16.699 -3.03,28.73 -9.09,36.121 -6.05,7.379 -13.81,11.078 -23.26,11.078 -9.26,0 -16.97,-3.598 -23.12,-10.809 -6.14,-7.199 -9.22,-18.128 -9.22,-32.808 z m -38.39,-76.25 V 326.43 h 38.67 v -72.668 c 11.93,13.578 26.05,20.367 42.39,20.367 17.8,0 32.52,-6.449 44.17,-19.328 11.66,-12.899 17.48,-31.399 17.48,-55.531 0,-24.957 -5.94,-44.18 -17.82,-57.668 -11.88,-13.493 -26.31,-20.231 -43.28,-20.231 -8.35,0 -16.59,2.09 -24.71,6.27 -8.12,4.16 -15.11,10.339 -20.98,18.5 v -21.469 h -35.92" /><path
         id="path298"
         style="fill:#ffffff;fill-opacity:1;fill-rule:nonzero;stroke:none"
         d="m 6825.52,270.832 h 41.14 l 34.96,-103.773 34.13,103.773 h 40.05 l -51.61,-140.652 -9.22,-25.461 c -3.39,-8.5393 -6.63,-15.0471 -9.7,-19.5471 -3.07,-4.4922 -6.61,-8.1328 -10.6,-10.9297 -3.99,-2.8008 -8.9,-4.9805 -14.72,-6.543 -5.83,-1.5586 -12.41,-2.3398 -19.75,-2.3398 -7.44,0 -14.73,0.7812 -21.88,2.3398 l -3.45,30.2696 c 6.06,-1.1875 11.52,-1.7891 16.38,-1.7891 8.99,0 15.64,2.6523 19.96,7.9103 4.31,5.289 7.61,12 9.91,20.172 l -55.6,146.57" /></g></g></svg>